<mxfile host="Electron" agent="Mozilla/5.0 (Windows NT 10.0; Win64; x64) AppleWebKit/537.36 (KHTML, like Gecko) draw.io/25.0.2 Chrome/128.0.6613.186 Electron/32.2.5 Safari/537.36" version="25.0.2">
  <diagram name="Page-1" id="mp3scRFSZZaKCxEWEV8w">
    <mxGraphModel dx="2100" dy="1242" grid="1" gridSize="10" guides="1" tooltips="1" connect="1" arrows="1" fold="1" page="1" pageScale="1" pageWidth="850" pageHeight="1100" math="0" shadow="0">
      <root>
        <mxCell id="0" />
        <mxCell id="1" parent="0" />
        <mxCell id="VPF1FaNwKksGI7bvQYjx-41" style="edgeStyle=orthogonalEdgeStyle;rounded=0;orthogonalLoop=1;jettySize=auto;html=1;entryX=0;entryY=0.5;entryDx=0;entryDy=0;strokeWidth=4;endArrow=blockThin;endFill=1;fontStyle=1;align=center;fillColor=#dae8fc;strokeColor=#D99857;fontFamily=Helvetica;fontSize=13;exitX=1;exitY=0.5;exitDx=0;exitDy=0;" parent="1" source="NmF9lf9thmj-kfz8kVUg-149" target="VPF1FaNwKksGI7bvQYjx-38" edge="1">
          <mxGeometry relative="1" as="geometry">
            <mxPoint x="1507.5" y="400.83" as="sourcePoint" />
            <mxPoint x="1557.5" y="400.83" as="targetPoint" />
          </mxGeometry>
        </mxCell>
        <mxCell id="VPF1FaNwKksGI7bvQYjx-23" value="" style="rounded=1;whiteSpace=wrap;html=1;fontFamily=Helvetica;fontSize=13;strokeColor=#6c8ebf;fillStyle=auto;fillColor=#F5F5F5;" parent="1" vertex="1">
          <mxGeometry x="1540" y="628" width="189" height="20" as="geometry" />
        </mxCell>
        <mxCell id="VPF1FaNwKksGI7bvQYjx-11" value="" style="rounded=1;whiteSpace=wrap;html=1;fontFamily=Helvetica;fontSize=13;strokeColor=#b85450;fillStyle=auto;fillColor=#F5F5F5;" parent="1" vertex="1">
          <mxGeometry x="1540" y="678.71" width="189" height="42.52" as="geometry" />
        </mxCell>
        <mxCell id="VPF1FaNwKksGI7bvQYjx-8" value="" style="rounded=1;whiteSpace=wrap;html=1;fontFamily=Helvetica;fontSize=13;strokeColor=#666666;fillStyle=auto;fillColor=#F5F5F5;" parent="1" vertex="1">
          <mxGeometry x="1540" y="654" width="189" height="20" as="geometry" />
        </mxCell>
        <mxCell id="NmF9lf9thmj-kfz8kVUg-14" style="edgeStyle=orthogonalEdgeStyle;rounded=0;orthogonalLoop=1;jettySize=auto;html=1;endArrow=blockThin;endFill=1;exitX=0.991;exitY=0.074;exitDx=0;exitDy=0;strokeWidth=2;exitPerimeter=0;fontStyle=1;align=center;fillColor=#ffe6cc;strokeColor=#000000;fontFamily=Helvetica;fontSize=13;entryX=-0.182;entryY=0.076;entryDx=0;entryDy=0;entryPerimeter=0;" parent="1" source="VPF1FaNwKksGI7bvQYjx-12" target="NmF9lf9thmj-kfz8kVUg-22" edge="1">
          <mxGeometry relative="1" as="geometry">
            <mxPoint x="402.01800000000003" y="362.0640000000001" as="sourcePoint" />
            <mxPoint x="435" y="362.12" as="targetPoint" />
            <Array as="points" />
          </mxGeometry>
        </mxCell>
        <mxCell id="NmF9lf9thmj-kfz8kVUg-21" style="edgeStyle=orthogonalEdgeStyle;rounded=0;orthogonalLoop=1;jettySize=auto;html=1;exitX=1;exitY=0.5;exitDx=0;exitDy=0;entryX=0;entryY=0.5;entryDx=0;entryDy=0;strokeWidth=4;endArrow=blockThin;endFill=1;fontStyle=1;align=center;fillColor=#dae8fc;strokeColor=#6c8ebf;fontFamily=Helvetica;fontSize=13;" parent="1" source="NmF9lf9thmj-kfz8kVUg-22" target="NmF9lf9thmj-kfz8kVUg-24" edge="1">
          <mxGeometry relative="1" as="geometry" />
        </mxCell>
        <mxCell id="NmF9lf9thmj-kfz8kVUg-22" value="" style="rounded=0;whiteSpace=wrap;html=1;fontStyle=1;align=center;fillColor=#b0e3e6;strokeColor=#0e8088;strokeWidth=2;fontFamily=Helvetica;fontSize=13;" parent="1" vertex="1">
          <mxGeometry x="440" y="356" width="11" height="90" as="geometry" />
        </mxCell>
        <mxCell id="NmF9lf9thmj-kfz8kVUg-37" style="edgeStyle=orthogonalEdgeStyle;rounded=0;orthogonalLoop=1;jettySize=auto;html=1;exitX=1;exitY=0.5;exitDx=0;exitDy=0;entryX=0;entryY=0.5;entryDx=0;entryDy=0;strokeWidth=4;endArrow=blockThin;endFill=1;fontStyle=1;align=center;fillColor=#dae8fc;strokeColor=#6c8ebf;fontFamily=Helvetica;fontSize=13;" parent="1" source="NmF9lf9thmj-kfz8kVUg-24" target="NmF9lf9thmj-kfz8kVUg-35" edge="1">
          <mxGeometry relative="1" as="geometry" />
        </mxCell>
        <mxCell id="NmF9lf9thmj-kfz8kVUg-24" value="" style="rounded=0;whiteSpace=wrap;html=1;fontStyle=1;align=center;fillColor=#f5f5f5;strokeColor=#666666;fontColor=#333333;strokeWidth=2;fontFamily=Helvetica;fontSize=13;" parent="1" vertex="1">
          <mxGeometry x="475" y="356" width="20" height="90" as="geometry" />
        </mxCell>
        <mxCell id="NmF9lf9thmj-kfz8kVUg-26" value="&lt;font color=&quot;#cc0066&quot;&gt;&lt;span&gt;32&lt;/span&gt;&lt;/font&gt;" style="text;html=1;align=center;verticalAlign=middle;whiteSpace=wrap;rounded=0;rotation=0;fontStyle=1;fontFamily=Helvetica;fontSize=13;" parent="1" vertex="1">
          <mxGeometry x="475" y="333" width="20" height="23" as="geometry" />
        </mxCell>
        <mxCell id="NmF9lf9thmj-kfz8kVUg-50" style="edgeStyle=orthogonalEdgeStyle;rounded=0;orthogonalLoop=1;jettySize=auto;html=1;exitX=0.5;exitY=1;exitDx=0;exitDy=0;entryX=0.5;entryY=0;entryDx=0;entryDy=0;endArrow=blockThin;endFill=1;strokeWidth=4;fontStyle=1;align=center;fillColor=#f8cecc;strokeColor=#b85450;fontFamily=Helvetica;fontSize=13;" parent="1" source="NmF9lf9thmj-kfz8kVUg-35" target="NmF9lf9thmj-kfz8kVUg-42" edge="1">
          <mxGeometry relative="1" as="geometry" />
        </mxCell>
        <mxCell id="NmF9lf9thmj-kfz8kVUg-154" style="edgeStyle=orthogonalEdgeStyle;rounded=0;orthogonalLoop=1;jettySize=auto;html=1;exitX=1;exitY=0.5;exitDx=0;exitDy=0;entryX=0;entryY=0.5;entryDx=0;entryDy=0;strokeWidth=4;endArrow=blockThin;endFill=1;fillColor=#f5f5f5;strokeColor=#666666;fontFamily=Helvetica;fontSize=13;" parent="1" source="NmF9lf9thmj-kfz8kVUg-35" target="NmF9lf9thmj-kfz8kVUg-152" edge="1">
          <mxGeometry relative="1" as="geometry" />
        </mxCell>
        <mxCell id="NmF9lf9thmj-kfz8kVUg-35" value="" style="rounded=0;whiteSpace=wrap;html=1;fontStyle=1;align=center;fillColor=#f5f5f5;strokeColor=#666666;fontColor=#333333;strokeWidth=2;fontFamily=Helvetica;fontSize=13;" parent="1" vertex="1">
          <mxGeometry x="518" y="356" width="20" height="90" as="geometry" />
        </mxCell>
        <mxCell id="NmF9lf9thmj-kfz8kVUg-36" value="&lt;span&gt;&lt;font color=&quot;#cc0066&quot;&gt;32&lt;/font&gt;&lt;/span&gt;" style="text;html=1;align=center;verticalAlign=middle;whiteSpace=wrap;rounded=0;rotation=0;fontStyle=1;fontFamily=Helvetica;fontSize=13;" parent="1" vertex="1">
          <mxGeometry x="518" y="333" width="20" height="23" as="geometry" />
        </mxCell>
        <mxCell id="NmF9lf9thmj-kfz8kVUg-41" style="edgeStyle=orthogonalEdgeStyle;rounded=0;orthogonalLoop=1;jettySize=auto;html=1;exitX=1;exitY=0.5;exitDx=0;exitDy=0;entryX=0;entryY=0.5;entryDx=0;entryDy=0;strokeWidth=4;endArrow=blockThin;endFill=1;fontStyle=1;align=center;fillColor=#dae8fc;strokeColor=#6c8ebf;fontFamily=Helvetica;fontSize=13;" parent="1" source="NmF9lf9thmj-kfz8kVUg-42" target="NmF9lf9thmj-kfz8kVUg-46" edge="1">
          <mxGeometry relative="1" as="geometry" />
        </mxCell>
        <mxCell id="NmF9lf9thmj-kfz8kVUg-42" value="" style="rounded=0;whiteSpace=wrap;html=1;fontStyle=1;align=center;fillColor=#f5f5f5;strokeColor=#666666;fontColor=#333333;strokeWidth=2;fontFamily=Helvetica;fontSize=13;" parent="1" vertex="1">
          <mxGeometry x="518.5" y="478" width="20" height="80" as="geometry" />
        </mxCell>
        <mxCell id="NmF9lf9thmj-kfz8kVUg-57" style="edgeStyle=orthogonalEdgeStyle;rounded=0;orthogonalLoop=1;jettySize=auto;html=1;exitX=1;exitY=0.5;exitDx=0;exitDy=0;entryX=0;entryY=0.5;entryDx=0;entryDy=0;strokeWidth=4;endArrow=blockThin;endFill=1;fontStyle=1;align=center;fillColor=#dae8fc;strokeColor=#6c8ebf;fontFamily=Helvetica;fontSize=13;" parent="1" source="NmF9lf9thmj-kfz8kVUg-46" target="NmF9lf9thmj-kfz8kVUg-55" edge="1">
          <mxGeometry relative="1" as="geometry" />
        </mxCell>
        <mxCell id="NmF9lf9thmj-kfz8kVUg-46" value="" style="rounded=0;whiteSpace=wrap;html=1;fontStyle=1;align=center;fillColor=#f5f5f5;strokeColor=#666666;fontColor=#333333;strokeWidth=2;fontFamily=Helvetica;fontSize=13;" parent="1" vertex="1">
          <mxGeometry x="562" y="478" width="25" height="80" as="geometry" />
        </mxCell>
        <mxCell id="NmF9lf9thmj-kfz8kVUg-52" value="&lt;span&gt;&lt;font color=&quot;#cc0066&quot;&gt;64&lt;/font&gt;&lt;/span&gt;" style="text;html=1;align=center;verticalAlign=middle;whiteSpace=wrap;rounded=0;rotation=0;fontStyle=1;fontFamily=Helvetica;fontSize=13;" parent="1" vertex="1">
          <mxGeometry x="559.5" y="455" width="26" height="23" as="geometry" />
        </mxCell>
        <mxCell id="NmF9lf9thmj-kfz8kVUg-53" value="&lt;font color=&quot;#0e8088&quot;&gt;128x128x1&lt;/font&gt;" style="text;html=1;align=center;verticalAlign=middle;whiteSpace=wrap;rounded=0;rotation=-90;fontStyle=1;fontFamily=Helvetica;fontSize=13;" parent="1" vertex="1">
          <mxGeometry x="392.63" y="406.88" width="74.25" height="15.75" as="geometry" />
        </mxCell>
        <mxCell id="NmF9lf9thmj-kfz8kVUg-67" style="edgeStyle=orthogonalEdgeStyle;rounded=0;orthogonalLoop=1;jettySize=auto;html=1;exitX=0.5;exitY=1;exitDx=0;exitDy=0;entryX=0.5;entryY=0;entryDx=0;entryDy=0;endArrow=blockThin;endFill=1;fontStyle=1;align=center;strokeWidth=4;fillColor=#f8cecc;strokeColor=#b85450;fontFamily=Helvetica;fontSize=13;" parent="1" source="NmF9lf9thmj-kfz8kVUg-55" target="NmF9lf9thmj-kfz8kVUg-62" edge="1">
          <mxGeometry relative="1" as="geometry" />
        </mxCell>
        <mxCell id="NmF9lf9thmj-kfz8kVUg-143" style="edgeStyle=orthogonalEdgeStyle;rounded=0;orthogonalLoop=1;jettySize=auto;html=1;exitX=1;exitY=0.5;exitDx=0;exitDy=0;entryX=0;entryY=0.5;entryDx=0;entryDy=0;strokeWidth=4;endArrow=blockThin;endFill=1;fillColor=#f5f5f5;strokeColor=#666666;fontFamily=Helvetica;fontSize=13;" parent="1" source="NmF9lf9thmj-kfz8kVUg-55" target="NmF9lf9thmj-kfz8kVUg-141" edge="1">
          <mxGeometry relative="1" as="geometry" />
        </mxCell>
        <mxCell id="NmF9lf9thmj-kfz8kVUg-55" value="" style="rounded=0;whiteSpace=wrap;html=1;fontStyle=1;align=center;fillColor=#f5f5f5;strokeColor=#666666;fontColor=#333333;strokeWidth=2;fontFamily=Helvetica;fontSize=13;" parent="1" vertex="1">
          <mxGeometry x="610" y="478" width="25" height="80" as="geometry" />
        </mxCell>
        <mxCell id="NmF9lf9thmj-kfz8kVUg-56" value="&lt;span&gt;&lt;font color=&quot;#cc0066&quot;&gt;64&lt;/font&gt;&lt;/span&gt;" style="text;html=1;align=center;verticalAlign=middle;whiteSpace=wrap;rounded=0;rotation=0;fontStyle=1;fontFamily=Helvetica;fontSize=13;" parent="1" vertex="1">
          <mxGeometry x="609.5" y="455" width="26" height="23" as="geometry" />
        </mxCell>
        <mxCell id="NmF9lf9thmj-kfz8kVUg-61" style="edgeStyle=orthogonalEdgeStyle;rounded=0;orthogonalLoop=1;jettySize=auto;html=1;exitX=1;exitY=0.5;exitDx=0;exitDy=0;entryX=0;entryY=0.5;entryDx=0;entryDy=0;strokeWidth=4;endArrow=blockThin;endFill=1;fontStyle=1;align=center;fillColor=#dae8fc;strokeColor=#6c8ebf;fontFamily=Helvetica;fontSize=13;" parent="1" source="NmF9lf9thmj-kfz8kVUg-62" target="NmF9lf9thmj-kfz8kVUg-65" edge="1">
          <mxGeometry relative="1" as="geometry" />
        </mxCell>
        <mxCell id="NmF9lf9thmj-kfz8kVUg-62" value="" style="rounded=0;whiteSpace=wrap;html=1;fontStyle=1;align=center;fillColor=#f5f5f5;strokeColor=#666666;fontColor=#333333;strokeWidth=2;fontFamily=Helvetica;fontSize=13;" parent="1" vertex="1">
          <mxGeometry x="610" y="594" width="25" height="70" as="geometry" />
        </mxCell>
        <mxCell id="NmF9lf9thmj-kfz8kVUg-69" style="edgeStyle=orthogonalEdgeStyle;rounded=0;orthogonalLoop=1;jettySize=auto;html=1;exitX=1;exitY=0.5;exitDx=0;exitDy=0;entryX=0;entryY=0.5;entryDx=0;entryDy=0;endArrow=blockThin;endFill=1;fontStyle=1;align=center;strokeWidth=4;fillColor=#dae8fc;strokeColor=#6c8ebf;fontFamily=Helvetica;fontSize=13;" parent="1" source="NmF9lf9thmj-kfz8kVUg-65" target="NmF9lf9thmj-kfz8kVUg-68" edge="1">
          <mxGeometry relative="1" as="geometry" />
        </mxCell>
        <mxCell id="NmF9lf9thmj-kfz8kVUg-65" value="" style="rounded=0;whiteSpace=wrap;html=1;fontStyle=1;align=center;fillColor=#f5f5f5;strokeColor=#666666;fontColor=#333333;strokeWidth=2;fontFamily=Helvetica;fontSize=13;" parent="1" vertex="1">
          <mxGeometry x="662" y="594" width="30" height="70" as="geometry" />
        </mxCell>
        <mxCell id="NmF9lf9thmj-kfz8kVUg-66" value="&lt;span&gt;&lt;font color=&quot;#cc0066&quot;&gt;128&lt;/font&gt;&lt;/span&gt;" style="text;html=1;align=center;verticalAlign=middle;whiteSpace=wrap;rounded=0;rotation=0;fontStyle=1;fontFamily=Helvetica;fontSize=13;" parent="1" vertex="1">
          <mxGeometry x="664" y="571" width="26" height="23" as="geometry" />
        </mxCell>
        <mxCell id="NmF9lf9thmj-kfz8kVUg-78" style="edgeStyle=orthogonalEdgeStyle;rounded=0;orthogonalLoop=1;jettySize=auto;html=1;exitX=0.5;exitY=1;exitDx=0;exitDy=0;entryX=0.5;entryY=0;entryDx=0;entryDy=0;endArrow=blockThin;endFill=1;fontStyle=1;align=center;strokeWidth=4;fillColor=#f8cecc;strokeColor=#b85450;fontFamily=Helvetica;fontSize=13;" parent="1" source="NmF9lf9thmj-kfz8kVUg-68" target="NmF9lf9thmj-kfz8kVUg-74" edge="1">
          <mxGeometry relative="1" as="geometry" />
        </mxCell>
        <mxCell id="NmF9lf9thmj-kfz8kVUg-123" style="edgeStyle=orthogonalEdgeStyle;rounded=0;orthogonalLoop=1;jettySize=auto;html=1;exitX=1;exitY=0.5;exitDx=0;exitDy=0;entryX=0;entryY=0.5;entryDx=0;entryDy=0;strokeWidth=4;endArrow=blockThin;endFill=1;fillColor=#f5f5f5;strokeColor=#666666;fontFamily=Helvetica;fontSize=13;" parent="1" source="NmF9lf9thmj-kfz8kVUg-68" target="NmF9lf9thmj-kfz8kVUg-122" edge="1">
          <mxGeometry relative="1" as="geometry" />
        </mxCell>
        <mxCell id="NmF9lf9thmj-kfz8kVUg-68" value="" style="rounded=0;whiteSpace=wrap;html=1;fontStyle=1;align=center;fillColor=#f5f5f5;strokeColor=#666666;fontColor=#333333;strokeWidth=2;fontFamily=Helvetica;fontSize=13;" parent="1" vertex="1">
          <mxGeometry x="720" y="594" width="30" height="70" as="geometry" />
        </mxCell>
        <mxCell id="NmF9lf9thmj-kfz8kVUg-70" value="&lt;span&gt;&lt;font color=&quot;#cc0066&quot;&gt;128&lt;/font&gt;&lt;/span&gt;" style="text;html=1;align=center;verticalAlign=middle;whiteSpace=wrap;rounded=0;rotation=0;fontStyle=1;fontFamily=Helvetica;fontSize=13;" parent="1" vertex="1">
          <mxGeometry x="722" y="571" width="26" height="23" as="geometry" />
        </mxCell>
        <mxCell id="NmF9lf9thmj-kfz8kVUg-73" style="edgeStyle=orthogonalEdgeStyle;rounded=0;orthogonalLoop=1;jettySize=auto;html=1;exitX=1;exitY=0.5;exitDx=0;exitDy=0;entryX=0;entryY=0.5;entryDx=0;entryDy=0;endArrow=blockThin;endFill=1;fontStyle=1;align=center;strokeWidth=4;fillColor=#dae8fc;strokeColor=#6c8ebf;fontFamily=Helvetica;fontSize=13;" parent="1" source="NmF9lf9thmj-kfz8kVUg-74" target="NmF9lf9thmj-kfz8kVUg-76" edge="1">
          <mxGeometry relative="1" as="geometry" />
        </mxCell>
        <mxCell id="NmF9lf9thmj-kfz8kVUg-74" value="" style="rounded=0;whiteSpace=wrap;html=1;fontStyle=1;align=center;fillColor=#f5f5f5;strokeColor=#666666;fontColor=#333333;strokeWidth=2;fontFamily=Helvetica;fontSize=13;" parent="1" vertex="1">
          <mxGeometry x="720" y="701" width="30" height="39" as="geometry" />
        </mxCell>
        <mxCell id="NmF9lf9thmj-kfz8kVUg-82" style="edgeStyle=orthogonalEdgeStyle;rounded=0;orthogonalLoop=1;jettySize=auto;html=1;exitX=1;exitY=0.5;exitDx=0;exitDy=0;entryX=0;entryY=0.5;entryDx=0;entryDy=0;strokeWidth=4;endArrow=blockThin;endFill=1;fontStyle=1;align=center;fillColor=#dae8fc;strokeColor=#6c8ebf;fontFamily=Helvetica;fontSize=13;" parent="1" source="NmF9lf9thmj-kfz8kVUg-76" target="NmF9lf9thmj-kfz8kVUg-81" edge="1">
          <mxGeometry relative="1" as="geometry">
            <mxPoint x="845" y="731" as="targetPoint" />
          </mxGeometry>
        </mxCell>
        <mxCell id="NmF9lf9thmj-kfz8kVUg-76" value="" style="rounded=0;whiteSpace=wrap;html=1;fontStyle=1;align=center;fillColor=#f5f5f5;strokeColor=#666666;fontColor=#333333;strokeWidth=2;fontFamily=Helvetica;fontSize=13;" parent="1" vertex="1">
          <mxGeometry x="780" y="701" width="35" height="39" as="geometry" />
        </mxCell>
        <mxCell id="NmF9lf9thmj-kfz8kVUg-77" value="&lt;font color=&quot;#cc0066&quot;&gt;&lt;span&gt;&lt;span&gt;256&lt;/span&gt;&lt;/span&gt;&lt;/font&gt;" style="text;html=1;align=center;verticalAlign=middle;whiteSpace=wrap;rounded=0;rotation=0;fontStyle=1;fontFamily=Helvetica;fontSize=13;" parent="1" vertex="1">
          <mxGeometry x="784.5" y="678" width="26" height="23" as="geometry" />
        </mxCell>
        <mxCell id="NmF9lf9thmj-kfz8kVUg-93" style="edgeStyle=orthogonalEdgeStyle;rounded=0;orthogonalLoop=1;jettySize=auto;html=1;exitX=0.5;exitY=1;exitDx=0;exitDy=0;entryX=0.5;entryY=0;entryDx=0;entryDy=0;strokeWidth=4;endArrow=blockThin;endFill=1;fontStyle=1;align=center;fillColor=#f8cecc;strokeColor=#b85450;fontFamily=Helvetica;fontSize=13;" parent="1" source="NmF9lf9thmj-kfz8kVUg-81" target="NmF9lf9thmj-kfz8kVUg-86" edge="1">
          <mxGeometry relative="1" as="geometry" />
        </mxCell>
        <mxCell id="NmF9lf9thmj-kfz8kVUg-110" style="edgeStyle=orthogonalEdgeStyle;rounded=0;orthogonalLoop=1;jettySize=auto;html=1;exitX=1;exitY=0.5;exitDx=0;exitDy=0;entryX=0;entryY=0.5;entryDx=0;entryDy=0;strokeWidth=4;endArrow=blockThin;endFill=1;fillColor=#f5f5f5;strokeColor=#666666;fontFamily=Helvetica;fontSize=13;" parent="1" source="NmF9lf9thmj-kfz8kVUg-81" target="NmF9lf9thmj-kfz8kVUg-109" edge="1">
          <mxGeometry relative="1" as="geometry" />
        </mxCell>
        <mxCell id="NmF9lf9thmj-kfz8kVUg-81" value="" style="rounded=0;whiteSpace=wrap;html=1;fontStyle=1;align=center;fillColor=#f5f5f5;strokeColor=#666666;fontColor=#333333;strokeWidth=2;fontFamily=Helvetica;fontSize=13;" parent="1" vertex="1">
          <mxGeometry x="844" y="701" width="35" height="39" as="geometry" />
        </mxCell>
        <mxCell id="NmF9lf9thmj-kfz8kVUg-83" value="&lt;span&gt;&lt;font color=&quot;#cc0066&quot;&gt;256&lt;/font&gt;&lt;/span&gt;" style="text;html=1;align=center;verticalAlign=middle;whiteSpace=wrap;rounded=0;rotation=0;fontStyle=1;fontFamily=Helvetica;fontSize=13;" parent="1" vertex="1">
          <mxGeometry x="848.5" y="678" width="26" height="23" as="geometry" />
        </mxCell>
        <mxCell id="NmF9lf9thmj-kfz8kVUg-90" style="edgeStyle=orthogonalEdgeStyle;rounded=0;orthogonalLoop=1;jettySize=auto;html=1;exitX=1;exitY=0.5;exitDx=0;exitDy=0;entryX=0;entryY=0.5;entryDx=0;entryDy=0;strokeWidth=4;endArrow=blockThin;endFill=1;fontStyle=1;align=center;fillColor=#dae8fc;strokeColor=#6c8ebf;fontFamily=Helvetica;fontSize=13;" parent="1" source="NmF9lf9thmj-kfz8kVUg-86" target="NmF9lf9thmj-kfz8kVUg-88" edge="1">
          <mxGeometry relative="1" as="geometry" />
        </mxCell>
        <mxCell id="NmF9lf9thmj-kfz8kVUg-86" value="" style="rounded=0;whiteSpace=wrap;html=1;fontStyle=1;align=center;fillColor=#f5f5f5;strokeColor=#666666;fontColor=#333333;strokeWidth=2;fontFamily=Helvetica;fontSize=13;" parent="1" vertex="1">
          <mxGeometry x="844" y="776" width="35" height="17" as="geometry" />
        </mxCell>
        <mxCell id="NmF9lf9thmj-kfz8kVUg-92" style="edgeStyle=orthogonalEdgeStyle;rounded=0;orthogonalLoop=1;jettySize=auto;html=1;exitX=1;exitY=0.5;exitDx=0;exitDy=0;entryX=0;entryY=0.5;entryDx=0;entryDy=0;strokeWidth=4;endArrow=blockThin;endFill=1;fontStyle=1;align=center;fillColor=#dae8fc;strokeColor=#6c8ebf;fontFamily=Helvetica;fontSize=13;" parent="1" source="NmF9lf9thmj-kfz8kVUg-88" target="NmF9lf9thmj-kfz8kVUg-91" edge="1">
          <mxGeometry relative="1" as="geometry" />
        </mxCell>
        <mxCell id="NmF9lf9thmj-kfz8kVUg-88" value="" style="rounded=0;whiteSpace=wrap;html=1;fontStyle=1;align=center;fillColor=#f5f5f5;strokeColor=#666666;fontColor=#333333;strokeWidth=2;fontFamily=Helvetica;fontSize=13;" parent="1" vertex="1">
          <mxGeometry x="949" y="776" width="35" height="17" as="geometry" />
        </mxCell>
        <mxCell id="NmF9lf9thmj-kfz8kVUg-89" value="&lt;span&gt;&lt;font color=&quot;#cc0066&quot;&gt;512&lt;/font&gt;&lt;/span&gt;" style="text;html=1;align=center;verticalAlign=middle;whiteSpace=wrap;rounded=0;rotation=0;fontStyle=1;fontFamily=Helvetica;fontSize=13;" parent="1" vertex="1">
          <mxGeometry x="953.5" y="753" width="26" height="23" as="geometry" />
        </mxCell>
        <mxCell id="NmF9lf9thmj-kfz8kVUg-111" style="edgeStyle=orthogonalEdgeStyle;rounded=0;orthogonalLoop=1;jettySize=auto;html=1;exitX=0.5;exitY=0;exitDx=0;exitDy=0;entryX=0.5;entryY=1;entryDx=0;entryDy=0;fillColor=#d5e8d4;strokeColor=#82b366;endArrow=blockThin;endFill=1;strokeWidth=4;fontFamily=Helvetica;fontSize=13;" parent="1" source="NmF9lf9thmj-kfz8kVUg-91" target="NmF9lf9thmj-kfz8kVUg-104" edge="1">
          <mxGeometry relative="1" as="geometry" />
        </mxCell>
        <mxCell id="NmF9lf9thmj-kfz8kVUg-91" value="" style="rounded=0;whiteSpace=wrap;html=1;fontStyle=1;align=center;fillColor=#f5f5f5;strokeColor=#666666;fontColor=#333333;strokeWidth=2;fontFamily=Helvetica;fontSize=13;" parent="1" vertex="1">
          <mxGeometry x="1059" y="776" width="35" height="17" as="geometry" />
        </mxCell>
        <mxCell id="NmF9lf9thmj-kfz8kVUg-103" style="edgeStyle=orthogonalEdgeStyle;rounded=0;orthogonalLoop=1;jettySize=auto;html=1;exitX=1;exitY=0.5;exitDx=0;exitDy=0;entryX=0;entryY=0.5;entryDx=0;entryDy=0;endArrow=blockThin;endFill=1;fontStyle=1;align=center;strokeWidth=4;fillColor=#dae8fc;strokeColor=#6c8ebf;fontFamily=Helvetica;fontSize=13;" parent="1" source="NmF9lf9thmj-kfz8kVUg-104" target="NmF9lf9thmj-kfz8kVUg-106" edge="1">
          <mxGeometry relative="1" as="geometry" />
        </mxCell>
        <mxCell id="NmF9lf9thmj-kfz8kVUg-104" value="" style="rounded=0;whiteSpace=wrap;html=1;fontStyle=1;align=center;fillColor=#f5f5f5;strokeColor=#666666;fontColor=#333333;strokeWidth=2;fontFamily=Helvetica;fontSize=13;" parent="1" vertex="1">
          <mxGeometry x="1064.5" y="701" width="24" height="39" as="geometry" />
        </mxCell>
        <mxCell id="NmF9lf9thmj-kfz8kVUg-105" style="edgeStyle=orthogonalEdgeStyle;rounded=0;orthogonalLoop=1;jettySize=auto;html=1;exitX=1;exitY=0.5;exitDx=0;exitDy=0;entryX=0;entryY=0.5;entryDx=0;entryDy=0;strokeWidth=4;endArrow=blockThin;endFill=1;fontStyle=1;align=center;fillColor=#dae8fc;strokeColor=#6c8ebf;fontFamily=Helvetica;fontSize=13;" parent="1" source="NmF9lf9thmj-kfz8kVUg-106" target="NmF9lf9thmj-kfz8kVUg-108" edge="1">
          <mxGeometry relative="1" as="geometry">
            <mxPoint x="1184" y="731" as="targetPoint" />
          </mxGeometry>
        </mxCell>
        <mxCell id="NmF9lf9thmj-kfz8kVUg-106" value="" style="rounded=0;whiteSpace=wrap;html=1;fontStyle=1;align=center;fillColor=#f5f5f5;strokeColor=#666666;fontColor=#333333;strokeWidth=2;fontFamily=Helvetica;fontSize=13;" parent="1" vertex="1">
          <mxGeometry x="1119" y="701" width="35" height="39" as="geometry" />
        </mxCell>
        <mxCell id="NmF9lf9thmj-kfz8kVUg-128" style="edgeStyle=orthogonalEdgeStyle;rounded=0;orthogonalLoop=1;jettySize=auto;html=1;exitX=0.5;exitY=0;exitDx=0;exitDy=0;endArrow=blockThin;endFill=1;fillColor=#d5e8d4;strokeColor=#82b366;strokeWidth=4;fontFamily=Helvetica;fontSize=13;" parent="1" source="NmF9lf9thmj-kfz8kVUg-108" target="NmF9lf9thmj-kfz8kVUg-114" edge="1">
          <mxGeometry relative="1" as="geometry" />
        </mxCell>
        <mxCell id="NmF9lf9thmj-kfz8kVUg-108" value="" style="rounded=0;whiteSpace=wrap;html=1;fontStyle=1;align=center;fillColor=#f5f5f5;strokeColor=#666666;fontColor=#333333;strokeWidth=2;fontFamily=Helvetica;fontSize=13;" parent="1" vertex="1">
          <mxGeometry x="1183" y="701" width="30" height="39" as="geometry" />
        </mxCell>
        <mxCell id="NmF9lf9thmj-kfz8kVUg-109" value="" style="rounded=0;whiteSpace=wrap;html=1;fontStyle=1;align=center;strokeWidth=2;fontFamily=Helvetica;fontSize=13;fillStyle=hatch;fillColor=#000000;" parent="1" vertex="1">
          <mxGeometry x="1042.5" y="701" width="22" height="39" as="geometry" />
        </mxCell>
        <mxCell id="NmF9lf9thmj-kfz8kVUg-113" style="edgeStyle=orthogonalEdgeStyle;rounded=0;orthogonalLoop=1;jettySize=auto;html=1;exitX=1;exitY=0.5;exitDx=0;exitDy=0;entryX=0;entryY=0.5;entryDx=0;entryDy=0;strokeWidth=4;endArrow=blockThin;endFill=1;fontStyle=1;align=center;fillColor=#dae8fc;strokeColor=#6c8ebf;fontFamily=Helvetica;fontSize=13;" parent="1" source="NmF9lf9thmj-kfz8kVUg-114" target="NmF9lf9thmj-kfz8kVUg-116" edge="1">
          <mxGeometry relative="1" as="geometry" />
        </mxCell>
        <mxCell id="NmF9lf9thmj-kfz8kVUg-114" value="" style="rounded=0;whiteSpace=wrap;html=1;fontStyle=1;align=center;fillColor=#f5f5f5;strokeColor=#666666;fontColor=#333333;strokeWidth=2;fontFamily=Helvetica;fontSize=13;" parent="1" vertex="1">
          <mxGeometry x="1186.5" y="594.5" width="23" height="70" as="geometry" />
        </mxCell>
        <mxCell id="NmF9lf9thmj-kfz8kVUg-115" style="edgeStyle=orthogonalEdgeStyle;rounded=0;orthogonalLoop=1;jettySize=auto;html=1;exitX=1;exitY=0.5;exitDx=0;exitDy=0;entryX=0;entryY=0.5;entryDx=0;entryDy=0;endArrow=blockThin;endFill=1;fontStyle=1;align=center;strokeWidth=4;fillColor=#dae8fc;strokeColor=#6c8ebf;fontFamily=Helvetica;fontSize=13;" parent="1" source="NmF9lf9thmj-kfz8kVUg-116" target="NmF9lf9thmj-kfz8kVUg-118" edge="1">
          <mxGeometry relative="1" as="geometry" />
        </mxCell>
        <mxCell id="NmF9lf9thmj-kfz8kVUg-116" value="" style="rounded=0;whiteSpace=wrap;html=1;fontStyle=1;align=center;fillColor=#f5f5f5;strokeColor=#666666;fontColor=#333333;strokeWidth=2;fontFamily=Helvetica;fontSize=13;" parent="1" vertex="1">
          <mxGeometry x="1241" y="594" width="30" height="70" as="geometry" />
        </mxCell>
        <mxCell id="NmF9lf9thmj-kfz8kVUg-139" style="edgeStyle=orthogonalEdgeStyle;rounded=0;orthogonalLoop=1;jettySize=auto;html=1;exitX=0.5;exitY=0;exitDx=0;exitDy=0;entryX=0.5;entryY=1;entryDx=0;entryDy=0;endArrow=blockThin;endFill=1;strokeWidth=4;fillColor=#d5e8d4;strokeColor=#82b366;fontFamily=Helvetica;fontSize=13;" parent="1" source="NmF9lf9thmj-kfz8kVUg-118" target="NmF9lf9thmj-kfz8kVUg-131" edge="1">
          <mxGeometry relative="1" as="geometry" />
        </mxCell>
        <mxCell id="NmF9lf9thmj-kfz8kVUg-118" value="" style="rounded=0;whiteSpace=wrap;html=1;fontStyle=1;align=center;fillColor=#f5f5f5;strokeColor=#666666;fontColor=#333333;strokeWidth=2;fontFamily=Helvetica;fontSize=13;" parent="1" vertex="1">
          <mxGeometry x="1298" y="594.5" width="25" height="70" as="geometry" />
        </mxCell>
        <mxCell id="NmF9lf9thmj-kfz8kVUg-122" value="" style="rounded=0;whiteSpace=wrap;html=1;fontStyle=1;align=center;strokeWidth=2;fontFamily=Helvetica;fontSize=13;fillStyle=hatch;fillColor=#000000;" parent="1" vertex="1">
          <mxGeometry x="1163" y="594.5" width="23" height="70" as="geometry" />
        </mxCell>
        <mxCell id="NmF9lf9thmj-kfz8kVUg-130" style="edgeStyle=orthogonalEdgeStyle;rounded=0;orthogonalLoop=1;jettySize=auto;html=1;exitX=1;exitY=0.5;exitDx=0;exitDy=0;entryX=0;entryY=0.5;entryDx=0;entryDy=0;strokeWidth=4;endArrow=blockThin;endFill=1;fontStyle=1;align=center;fillColor=#dae8fc;strokeColor=#6c8ebf;fontFamily=Helvetica;fontSize=13;" parent="1" source="NmF9lf9thmj-kfz8kVUg-131" target="NmF9lf9thmj-kfz8kVUg-133" edge="1">
          <mxGeometry relative="1" as="geometry" />
        </mxCell>
        <mxCell id="NmF9lf9thmj-kfz8kVUg-131" value="" style="rounded=0;whiteSpace=wrap;html=1;fontStyle=1;align=center;fillColor=#f5f5f5;strokeColor=#666666;fontColor=#333333;strokeWidth=2;fontFamily=Helvetica;fontSize=13;" parent="1" vertex="1">
          <mxGeometry x="1300" y="478" width="23" height="80" as="geometry" />
        </mxCell>
        <mxCell id="NmF9lf9thmj-kfz8kVUg-132" style="edgeStyle=orthogonalEdgeStyle;rounded=0;orthogonalLoop=1;jettySize=auto;html=1;exitX=1;exitY=0.5;exitDx=0;exitDy=0;entryX=0;entryY=0.5;entryDx=0;entryDy=0;strokeWidth=4;endArrow=blockThin;endFill=1;fontStyle=1;align=center;fillColor=#dae8fc;strokeColor=#6c8ebf;fontFamily=Helvetica;fontSize=13;" parent="1" source="NmF9lf9thmj-kfz8kVUg-133" target="NmF9lf9thmj-kfz8kVUg-136" edge="1">
          <mxGeometry relative="1" as="geometry" />
        </mxCell>
        <mxCell id="NmF9lf9thmj-kfz8kVUg-133" value="" style="rounded=0;whiteSpace=wrap;html=1;fontStyle=1;align=center;fillColor=#f5f5f5;strokeColor=#666666;fontColor=#333333;strokeWidth=2;fontFamily=Helvetica;fontSize=13;" parent="1" vertex="1">
          <mxGeometry x="1350" y="478" width="25" height="80" as="geometry" />
        </mxCell>
        <mxCell id="NmF9lf9thmj-kfz8kVUg-153" style="edgeStyle=orthogonalEdgeStyle;rounded=0;orthogonalLoop=1;jettySize=auto;html=1;exitX=0.5;exitY=0;exitDx=0;exitDy=0;entryX=0.5;entryY=1;entryDx=0;entryDy=0;fillColor=#d5e8d4;strokeColor=#82b366;endArrow=blockThin;endFill=1;strokeWidth=4;fontFamily=Helvetica;fontSize=13;" parent="1" source="NmF9lf9thmj-kfz8kVUg-136" target="NmF9lf9thmj-kfz8kVUg-145" edge="1">
          <mxGeometry relative="1" as="geometry" />
        </mxCell>
        <mxCell id="NmF9lf9thmj-kfz8kVUg-136" value="" style="rounded=0;whiteSpace=wrap;html=1;fontStyle=1;align=center;fillColor=#f5f5f5;strokeColor=#666666;fontColor=#333333;strokeWidth=2;fontFamily=Helvetica;fontSize=13;" parent="1" vertex="1">
          <mxGeometry x="1401" y="478" width="20" height="80" as="geometry" />
        </mxCell>
        <mxCell id="NmF9lf9thmj-kfz8kVUg-141" value="" style="rounded=0;whiteSpace=wrap;html=1;fontStyle=1;align=center;strokeWidth=2;fontFamily=Helvetica;fontSize=13;fillStyle=hatch;fillColor=#000000;" parent="1" vertex="1">
          <mxGeometry x="1277" y="478" width="23" height="80" as="geometry" />
        </mxCell>
        <mxCell id="NmF9lf9thmj-kfz8kVUg-144" style="edgeStyle=orthogonalEdgeStyle;rounded=0;orthogonalLoop=1;jettySize=auto;html=1;exitX=1;exitY=0.5;exitDx=0;exitDy=0;entryX=0;entryY=0.5;entryDx=0;entryDy=0;strokeWidth=4;endArrow=blockThin;endFill=1;fontStyle=1;align=center;fillColor=#dae8fc;strokeColor=#6c8ebf;fontFamily=Helvetica;fontSize=13;" parent="1" source="NmF9lf9thmj-kfz8kVUg-145" target="NmF9lf9thmj-kfz8kVUg-147" edge="1">
          <mxGeometry relative="1" as="geometry" />
        </mxCell>
        <mxCell id="NmF9lf9thmj-kfz8kVUg-145" value="" style="rounded=0;whiteSpace=wrap;html=1;fontStyle=1;align=center;fillColor=#f5f5f5;strokeColor=#666666;fontColor=#333333;strokeWidth=2;fontFamily=Helvetica;fontSize=13;" parent="1" vertex="1">
          <mxGeometry x="1401" y="356" width="20" height="90" as="geometry" />
        </mxCell>
        <mxCell id="NmF9lf9thmj-kfz8kVUg-146" style="edgeStyle=orthogonalEdgeStyle;rounded=0;orthogonalLoop=1;jettySize=auto;html=1;exitX=1;exitY=0.5;exitDx=0;exitDy=0;entryX=0;entryY=0.5;entryDx=0;entryDy=0;strokeWidth=4;endArrow=blockThin;endFill=1;fontStyle=1;align=center;fillColor=#dae8fc;strokeColor=#6c8ebf;fontFamily=Helvetica;fontSize=13;" parent="1" source="NmF9lf9thmj-kfz8kVUg-147" target="NmF9lf9thmj-kfz8kVUg-149" edge="1">
          <mxGeometry relative="1" as="geometry" />
        </mxCell>
        <mxCell id="NmF9lf9thmj-kfz8kVUg-147" value="" style="rounded=0;whiteSpace=wrap;html=1;fontStyle=1;align=center;fillColor=#f5f5f5;strokeColor=#666666;fontColor=#333333;strokeWidth=2;fontFamily=Helvetica;fontSize=13;" parent="1" vertex="1">
          <mxGeometry x="1447" y="356" width="20" height="90" as="geometry" />
        </mxCell>
        <mxCell id="NmF9lf9thmj-kfz8kVUg-149" value="" style="rounded=0;whiteSpace=wrap;html=1;fontStyle=1;align=center;fillColor=#f5f5f5;strokeColor=#666666;fontColor=#333333;strokeWidth=2;fontFamily=Helvetica;fontSize=13;" parent="1" vertex="1">
          <mxGeometry x="1490" y="356" width="15" height="90" as="geometry" />
        </mxCell>
        <mxCell id="NmF9lf9thmj-kfz8kVUg-152" value="" style="rounded=0;whiteSpace=wrap;html=1;fontStyle=1;align=center;strokeWidth=2;fontFamily=Helvetica;fontSize=13;fillStyle=hatch;fillColor=#000000;" parent="1" vertex="1">
          <mxGeometry x="1378" y="356" width="23" height="90" as="geometry" />
        </mxCell>
        <mxCell id="VPF1FaNwKksGI7bvQYjx-1" style="edgeStyle=orthogonalEdgeStyle;rounded=0;orthogonalLoop=1;jettySize=auto;html=1;entryX=0;entryY=0.5;entryDx=0;entryDy=0;strokeWidth=4;endArrow=blockThin;endFill=1;fillColor=#f5f5f5;strokeColor=#666666;fontFamily=Helvetica;fontSize=13;" parent="1" edge="1">
          <mxGeometry relative="1" as="geometry">
            <mxPoint x="1554.5" y="664" as="sourcePoint" />
            <mxPoint x="1604.5" y="664" as="targetPoint" />
          </mxGeometry>
        </mxCell>
        <mxCell id="VPF1FaNwKksGI7bvQYjx-2" value="&lt;font color=&quot;#666666&quot;&gt;&lt;b&gt;copy and crop&lt;/b&gt;&lt;/font&gt;" style="text;html=1;align=center;verticalAlign=middle;whiteSpace=wrap;rounded=0;fontFamily=Helvetica;fontSize=13;" parent="1" vertex="1">
          <mxGeometry x="1605.5" y="654" width="100" height="18" as="geometry" />
        </mxCell>
        <mxCell id="VPF1FaNwKksGI7bvQYjx-5" style="edgeStyle=orthogonalEdgeStyle;rounded=0;orthogonalLoop=1;jettySize=auto;html=1;entryX=0.5;entryY=0;entryDx=0;entryDy=0;endArrow=blockThin;endFill=1;strokeWidth=4;fontStyle=1;align=center;fillColor=#f8cecc;strokeColor=#b85450;fontFamily=Helvetica;fontSize=13;" parent="1" edge="1">
          <mxGeometry relative="1" as="geometry">
            <mxPoint x="1586.5" y="684.97" as="sourcePoint" />
            <mxPoint x="1586.5" y="714.97" as="targetPoint" />
            <Array as="points">
              <mxPoint x="1586.5" y="682.97" />
            </Array>
          </mxGeometry>
        </mxCell>
        <mxCell id="VPF1FaNwKksGI7bvQYjx-6" value="&lt;font color=&quot;#b85450&quot;&gt;&lt;b&gt;max pool 2x2&lt;/b&gt;&lt;/font&gt;" style="text;html=1;align=center;verticalAlign=middle;whiteSpace=wrap;rounded=0;fontFamily=Helvetica;fontSize=13;" parent="1" vertex="1">
          <mxGeometry x="1612.5" y="689.97" width="87" height="18" as="geometry" />
        </mxCell>
        <mxCell id="VPF1FaNwKksGI7bvQYjx-12" value="" style="shape=image;verticalLabelPosition=bottom;labelBackgroundColor=default;verticalAlign=top;aspect=fixed;imageAspect=0;image=data:image/jpeg,/9j/4AAQSkZJRgABAQAAAQABAAD/2wBDAAgGBgcGBQgHBwcJCQgKDBQNDAsLDBkSEw8UHRofHh0aHBwgJC4nICIsIxwcKDcpLDAxNDQ0Hyc5PTgyPC4zNDL/wAALCAEAAQABAREA/8QAHwAAAQUBAQEBAQEAAAAAAAAAAAECAwQFBgcICQoL/8QAtRAAAgEDAwIEAwUFBAQAAAF9AQIDAAQRBRIhMUEGE1FhByJxFDKBkaEII0KxwRVS0fAkM2JyggkKFhcYGRolJicoKSo0NTY3ODk6Q0RFRkdISUpTVFVWV1hZWmNkZWZnaGlqc3R1dnd4eXqDhIWGh4iJipKTlJWWl5iZmqKjpKWmp6ipqrKztLW2t7i5usLDxMXGx8jJytLT1NXW19jZ2uHi4+Tl5ufo6erx8vP09fb3+Pn6/9oACAEBAAA/APn+iiiiilooo70YooxRRilxSdKOKKKKKKSiiiiiiiiiiiiiilooxTlRmOADUqWsz8LE/wD3yakOm3QGTCfSmNZzrwYW49BUbROnVSPqKZiikooooooopKKKKKKKKKKKWkpaBVi3tJbk/Ivyjqx6CtW200SArbwNcN3kIO0f5961rXw5qcvBKwKBklVwOP8APrQdDt4mP2jUYo8f35RzRPpejRlcarC+fQ01dJs5DiDUrf6CTH9adNoN1EqGO7SRWBIxIDgfjVKXSrxeJLVG5xu8vP8AKqc+nkEk2pQD0JH86rvYw8ndKn1XcB+VRHT2IzFLG/tnB/KoJLaWL78bL+FQ0tJRRRSUtJRRRRRRS0UU6ONpHCoCWPQCtGLT1jYeflpP+eS9fxrqLHw1czWwuL6RbOzQBhGTtyPfP9fyovvEUUdmbPSbYJEBgzOOSfVR2+pya5261WaZAtxczzADARnJA/Oq0Ms7qRFCpX1xn+dRPcXCfKeCP9kCpLd7mZsLGrZ7lAB+dWzDNEMlMN3KMRTo7m4HHnXAxzy2R+WasjWtRij2mfeinPzoPp6U2LX4mOLmxjkyeSCVJ/nU5udJuYzvimg54PDKP60RaZ9olZLC7SQD3wfyNVLzTJIHK3VqQf7ycH/A1my2B5MLCQDqvRh+FUyMcEYNJ9KKKSiiiiiiilooqa3tpLmUIgPufSuh0vTJZJDFYpvJ+/OeAo9v8a3n/svw7GAuLrUD1Hoff0/nWFfancXrb72Yt/zzhXhR+Hb69fesad5wikoyI3AI6fhW4miwT2Q+UAgffHXPvTNPtTbwvG/UMR9ag1W1DQ+aoxjgmtLTLVLm1UR/wirWpW/k2asBlhwcVhiKZlLrgAdjUsCC6BQrtcZBU96jj0Jstu3AD16UptjBkALgd+1U7iTyivmQAjOVdGwauW2s3VugMd150XQx3A3D8zVsT6XqRUSR/wBnzno2cxsfr2qpqWkTwMqzx8H7sq9CPw4NYc1u8L4Yfj61Dik/CkoooooooopakgheeVUQZJrrNF0U3R8lTsiX/XSevtVy/wBfS0jk0/SV8qMNgzAgluO368/l61zqbnYuBk8nPvUU8FwoV3X5C3PPJGe9dIbKK/0kqgBbbx7Go9EnPleRLncp2tmrU9o8UuSMxnkGsrUC3lOAvBHSrnhwnYvBB5GDW5cy26lop0yppkVhaSRYVRyOMVg3FqbbUwn5f0qzqtxIiCGPnI6H1rn5YruFt/mZyenpT106a5XdJJgegqazskuI3tsYkTOPeq89jLa7tgIA6qeVNLZaxLbxmDG+3brbyHI/4D6VcuLW2uLH7TCxktycOn8cJ/wrnriBoJCpIIHQjuKgNFFJRRRRRS0V0WgadJcbVjBEspwDjoO5q9qt+sSjS7J1EKcSuP4j35/z/OsYModQPuk4z61tWzWUAUSo3uccVb1G3Sa0VocGNh1A6VW0e4ezmEMv3Txn1rRutLdbxbu2HDffH9a2UjyoDrlSOR6Vl32iyljJAodewo0+xa3fLpsbuBWlcWaXUX7wYbGAao2Nnc290YipKA5zVy502G4cSuP3iDANV/7GRrkSytn/AGao3ehyGfdCQyHkj0pLmEWNnjb+8fgYHSszYbO3eQjEr8jtUUl1lFichie5PNUbyFGCoi/vCflPpUNtcTWN0HVRuAw654dfermsWES2sNzasXglXch/unup9MVzxpKSiiiiiloqW3jMs6RjqSBXdPLFovhuS7C4uZj5Fvx0UD5jXHRbmQqFYk8kjripYbWeYtKqkJG3K854PpXRWUtleqIJCBIRgGpbCc6fdtZzjML/AN7tWnLoMVw4ljl2qecVsRwBI1RSflGOaeY+g7e1ORSMjPTjio2tm3ZHJNSpbnJ54p4j5I60hTGV4NRmIHOaYY/m9u1QTQLIMkZI6ZHSud1PSL53Zwd49qwZNOuEnDOj/gOtXRaeTALq5BUdFXHWsO9ZzdBym0dBmtXRpo7iyu9PuHUcebCSf4uhA+uQPc1zsi7JGX0JFMNFJRRRRRS1reH4DPqIwMsoJHGeen9a3vHsohu7TTEHyWsAHHGWbk8fTFY2iHFyoaMtv4zjoBWxNGbHWkAP7mXqDT7+xS11BJY1wG6H1rS1izWa1ilRcOwHI9am0ae5hkW1uEY8cMRXReXnoacEyDkcUGMkZ7U9VG3qeO9KFwucUu3rkULFnuM+opDBk8YqFoyQR6VEV7EZFQvGOcdqgmby0Y8YA6tXMyahJPdeU8SSx56kdKp6tZwSjMbqMjkelZ+gv5XiC054Zyp+hH/16oazH5WsXSAYAeqVFFJRRRRSiuu8D2f2nUF7AyKDx2HJ/kKy/ENz9s8Q30wJKmZgM9sHH9BWp4fktxMYWXJQ4HH+feulvtMS+RSeJFxg1OtgklrHHONzJ0PpV6GBUjCEAqBxmrCoGcFgM9jip1TAy31xShc9RxRG8TsyIRlOpphcAZGfY07c2MsMU1skqCD9RQd+COgHcmjzCVJPI9aTIIIRgwqPAzmoymScDrWXrEVw1qUtl3EnBHtXMtY3sRxIPKQ8sxGP1rPuPsg3qJXc9zzVPTnWLWLaXPyCVSCevaneKoxH4huQOhOaxs0tFFJRRS0CvQfAAiiSWeQZKrI45x0AriZ28y4lfn5nyee5613ej2dsYOSAevHU1voB0BqdEJP0qYR/NntUyKMVHdXMVjbtcTuFjXqzVWfW9PbTHu47uIrt4G4ZrJ8K3z6iLmRlIVnOPYCuiMYAyDwexoTO7GMg96kkIh5HzMR0rHuZ5mOwsQpPSlS8ZCAxDAcYNX4ZTMxbaAD6U5lXofzqvJJHFGWkYKo7mqMuqWUeAZcj2Gapyz2GqIYvM4HY8VizadGsj4kjK9AormbhUhvyqfwuP/r1f8WQgzWt0TiSWMB1PqODXOUtFJRRRS0veu70Dy4vCt++/ZILZ9pz6n3rlbOMTSQxN/y0lwT7V18tp9gRLi3Y7B1Gc4qTT5LqW7M0BJi/iBrpJXZIxt74qhLrcNq+JHz61dh1JZ7cy2+JeM7Qea4XxRrWo3sv2aaF7eBW6FMbv8azrHSheMoClhjJOcBR6mvRvDumjTLEKWSTdwrL+tbeAR6rioVJTcpGcdBSKTsOVbIPOaqXoXjgKTzWbJjByc85q3pYfc8rcIRhRWkziJDuZcHoTWPqBtLhgks+D2Gawr22tbXiWb6Ac1hXGoRpJviHyjjkdazptTuZWIXKk+gpsFu7tHlG3M43FhWr4jYS6dDIWyRIVAHp1rmKKKKKKKWlHXmvRNCWK58EX6D74iP44JP9a43TQXvbZA20+Z1ru7SIWqPJI/mRFfutVzTbu2uIytuqx/7IHWtIosibXHBrPm0GznfLAtnsRQNAhSPbbSPCw9BVuCzEcRivWjniA6OvSmRaPYLbzJphRXlYEjOc47fTmotLWWzuTDPuVT90N0BrbE4UhTyxPbtUssTSYkjTPy5HvWTcalJNbbUT7NOOqtyRVC8n8qGKWS42yMArrJ0z6io4po3cK4L/AEPFaUszRWMk2wYQfKo45rkpru4mkdppGz69gKpz38SSKc+YQeg5JqM6bqmtTCKKI5Y4x7e/p+NdZF8ObbTtLa61W6YEAfJH0zWDb6FYPqKlryMQZxHg7Tu9Km1XQprGM3Ml2zOzYSI9APrXGaldGabyl4jiJUe59apUUtJRRRRS13vge4zpt/ahAd6Ngn1wf8K5bT3W31iMNjashGTXYzSNeTx28bYjxk1MbdNMgdyw3kbUAqKEzymGBZHyTlua1JdWlSV4FjBjjXGe5NZttrtw0jozuGB4zVi6v5LqHyQTk/ex1NJBBeWw823LFgOTmrlrronkNtqcXzgdcYP51euNOldPP065cgjIHX9DWUbnUUSSG/uplOcL5WFGPyzVeMsrkbyyEcFj82frS3YS9hELAMem2q0DPFer5xAXaAqjgdOmK0NT1mJbZot+0gDJ7CuRCzXty5aXFuwODjJbp0/OrdtazysItN0uaeRCQCFJz6kmui03Q9cimVtXvk0+E8iBGAI+oHSuZ1/xHfTXc0CXvmQI21CB94cVgQ3ZjuFlZ/mjbd83IJrqPEWuzXmlxy+bEo2RrGiNznDbmPHuvGT93tmuIoopc0UUlFLilrsvAMwXUXhI++vH/wCv8awNUiEes3CP8vznv0OaltLu4V8rLjbjcp7jPatu81NbiCIRqxKdsHmrNvqcgBa3hG/HJJAxUjz3Mq7nKruODjNEdvhT87bh16VYhgKnYC2487uORShru3O1JQzMTgElT/WmyPNIGM9u28DGVw38jV7T9beKBUTaQOoB5/GtY3GnammJGEUgHQ9azpdNkt3LxMHHbnNV1tStzlnWNOpbP6VDfWC3KNLBll9VNc1cae7xtmZzg9Dzj0pumakNP1S3NxG7CM7QEHGCCPxrudS1G/eytbnR54rRMeUwVkHzY+7g9TgE1w99fXN/dRvqOrQyO5whEoIH125C9e+KwbyNoHKMo5JwQaroCxI9vzq/c7LeONW3maNMDkYBP15rPYlmLHkk5NJRSmlFITRRSUtb3hO48jXIOcbmAz9a0fHWnfZdamlQYDkSY9m5/wAa5uOYriXHQ4YetdNaGNogrhlV+7D/ACKswwvbAptDxg5XPoavRTRyDDQEr65watpbiXa9u+8rwVbg1aOnzsqPGoJB+6e1SmwlkYMFAYdccUXFo8UO8KWdQdwA615tqV451SSRFeE55Cgg5rRi1yYbY5IGlYKCzhgCR9K1LfVjdxE26lSvDxScMPcU9VnnbDNtXrnPIrUjuIrBfs8Q8wgZY9QTWNqOpRqjPIqR88juTXNRFricHy3aH7zCMYwPXj2Nbl1qsR08aXes6Wu9ZTukb5wowo2jk5ye4+6D6Cubxbi/X7PA29ZdwicGRG5yBjGduOvUn9atyS/ZvOkuhE7u+HUDl8j74BxwcHPoRzjIFMi1OzDB2t2WRRgMvzfzPFULu4Sdz5cSquc524Y/Xmq1FFL1o6UdaKSloqSKRopFdThgeCK9HvZV8U+G4dSijDXVouy4iVeWX/PNcNe2Bth50RLW79D6exrW0S+SSDyW270HG7uK2re+Z+Q8bRA4IPIq8jWMjE4ePPUjmtWys4Y2EivvY9D0zVpc+byTUmCTn1HB60TyCCJpXILKucA/0ry3VoUW8Mjyl7iV+VHRBmptIt1ZLiUqJXK7FBPQ5/8ArV0Xg3QdO1HWLi3v70WbR/MuzGSPx4PWpfEB03Sr14rW4lnZQ2WCZ/PHFcwNRubiQyWw2r6jpn1IqcaFPN880nmSEbm54+laukOdF1A+bbwvakbXRjgtnnjPtk/h7ZrkNe1iTWNSe4c/u8gRxjoijoP1+tZRxnjpRRRRRRSqexpxA7HNJ3pOPWkpaKXtW34a16bRdRV1Y+U/yyL2IrsNa0qO2VL2HnT73naBwjEc/nXF3NnJpd6kqcxbsr7e1dFA1vcosrEAEcEDNacEdujZklwf7qDrV63vwwKxx7Y0Gc+tS22prLIEkUDPQ+1Xbi5jtYdzNgHgYrnXv0hkkeUsC4yGx+lclPc+Zqv2lIvNT+6cEAdP8K3NBSCdrhHCiNmGFPylQOwI962JBo8colNjukUYBLk7lHr3qCA2lhKs81sYEmIPlNySPx6VDqNtBYSJqFvdJHHPIRFBgF89OF6tyQOM9aU3i20MlyI2k8tXYxq4GSvUHt2OfTHQniqGt6hAkNzHM+2ReItoJw/Iz+RYc1xBJY5JJPqaSiiiiiiigUUUUtFL2oBwc16X4E1CLWNLuPD95jlS0LE9x2/Cs65tsNLazqC0T7HVu5HcfhzWVJHdaLfHy/3tu3I2/wBK0re+gmjYRSAuw+bPWtCGQxxbAdu4HJ9vSnRS/OABtJweM1buNlyyqZMFBzuPQ1z2qXLOyxQANz8x9faqsESW6lWiR3mBVU6kkntitbRrQW9xcLIdsmMoF4CntjNXrmaDTbFbyOCK4njn+aGRd2QORnjpmm3UcmpQxXs3l5dfuR9F+lYOrXOmzKbK6uZYniBUFVbIzg4IxyOFP4DBpkWtaZZWiQpI0pjG1TFGV7Y3YOOpGT9awb2+SdpPKj4cglnUZ4z9fWqNFFFFFFFFApaSlpKWilq9pOoS6ZqUF3ExDRuGFeo+KLO3u9Os/Etgf3NygMuDyp6c/Q1zu5WUwyD5f4SD90+o9qzrzRmLZOI5yMo46MKqG71Wwyku11P8TDP60Ra/eITmNCvTK/8A16nGuzzsiLAMkYOGz/Kpmklh3y+SFz2ZMCpNAtfNuDez5yDhV7fhWrfSrBcyXKOoAT5y3Q4PFNuLi3jsGuZpyIJEALLk5U8dB71n23iKxFiLeS6bZD8oJQ/NnJ479ueK5PUroXuozTqMBiAPcAAZ/SqlFFFFFFFFFFFLRRRiilHAoweoHSjPOa9S+F1/HqNveeHbtgY5kLxKwzz3A/nWbqNi+majNYOGzESY2P8AEvaoctJGEYnC9s/d+lPgQyOIJFwHIUngg08+Dry5ukt7fymeRimd4G0jpkZ4zmkm8PzaHdTpcmErGeX8wbSO+PWpYLL+0bSZxKssseCUB6Kap21nFHGVndoFDFlkXnB96sXVylw0ljbKCjHc8mMZx7VS1N4E8KvGUkKbiq+Wv3TnIz/s5AH41xVFFFFFFFFFFFFLRiijFAo60ueCKXPpSd6u6TqU+lanBe2zlJYnDKRXt/iK1g8U+ErbxDpsYM4XcVHZhyyn9a87ZgQsg4B6j0rQsore7BtbklQ3Csv8J7fhVzTrvUtE1V7K5tAwLhTvXPmADjk+1WviHbfZkt1WEwQzZCkxkcjHf6HFcFZ6kdNnLw72ckEAZGR/Wul0e/0u+u4hdWc7ENmUleF+uO3NaE0cFzrbSxxpBAq+XEAuARxz6jg9653xOTDosqxttDXQSReuRgsP1A/KuJoooooooooooopQaKKKSlopaBQDivYPgxrJkN7oE0uY5k8yJSM/N3xWdrWnf2drV5aEYXeXVcdiazog8Mvyn5hwM1r3h16axt7y4K3FvEdit5QbZjoSRyTWld+Iv+Ei0T+zNVZEZf8AVTrwQe34dK4OGyjibdJFJNIhwBu4J+v51raLZFryW6uJGhjlXaFjAJ46cc1tvNo9nKxkuiZP7rsSSfoozXFeNbhZbizjC4IRpBhCo2sQB15z8p/SuWooooooooooooopaSlpKcB7UuOKSjrSjrW14U1V9G8RWd6px5cgJ56jNexfEa0ikvbDVYFAjuowdw6YYdPwOa4W5BTGf4Gwx9v8mtLT9VuLW2kh3MYWO1lH8QIrLklgs2WIS8L0LLwydv8AD8KguZ4peIFdivIwpwSeq/1qpbzX0zIgM0ckmUSGLhn9qmSx+zySWl1DNFcgjekg2tz6+tZviu0+zLZouXVFZS+3p3C5/P8AXFc1RRRRRRRRRRRRRS80lFL3p2TRkDsetGfmoHDD0pTwSP5U9MBgccjmvdrSRde+FULn557T5FIPI7fzH61yXyM6/LlXG4jHrUUaeUUZ2GxMrg45HatPU/D15q9pHe2WnhY4lwxiwxIPPIzwBzWPeiW2NrZTWzQyA5cFep6Z/I1Qg1CPTNSa9M8QurUZjEh5J6/d/LArV8UePdI1W5066ihZrtY8XUkUW0HOePmxkg859+tcFqupHU51lMbR44278j+Q5/8ArVQooooooooooooop2aQ0Z4peaKPSnBCQcUnTijn3pwOD7dK9p+D8pv9E1DSz0KNgnnngjj8DWTeQCCSSNM7o5WXGegzx1+pqhM++NlOMn88V0ei3Uy6bMsN6ttcNCyxscEhscHaeDjrivGrm9urx991czTtnOZZCxz+NJNFsjhkA+WRMj6gkH+X6ioaKKKKKKKKKKKKKKKXtRmkp2PSlxxmnKOx4HvTs44BximGkAIXOKcOB+PevTPg5fLZa7O0p/dMoDZHqcf1re8S2oh1S7RAdu8gEnnjvXOSor4IBHWi4FuNO8yUky9tvJ46f1rzq9jWK+uI0XaqSsoXOcAHpU0rCTR7b5l3RSuhUA5wQpB/Pd+VUqKKKKKKKKKKKKKKKWkop+B3H5UHninZIGKd9ee3NNY9ARQc8ZpRyOQSK7/4Xo0uslI13MXTIz23A12Pi7I1m7kxtJcjaqnGc+/X3NcuS4bJHQdB3qBJIVtWa7jdo93zFSeB61xniC3EGrybGDwuqtG4Ody4x39wR+FU4grWU4OSylXXnpzg/wAx+lV6KKKKKKKKKKKKKKKKKKkVd3H607aepI/Klx6Clc9MDB6UzJ6mlXGeBSjGAO56V3Xwwu1sNakmlb5PlBGRzlgP8+td/wCO5LeXxFcojFlUr+8JJJyf5duK42UMMbAc5GWbjiq15h7ULGG3EhcLjJJ61yniC28kWj78nY0WzaBt2n/7L9KoWLJunjcO3mQsqqg6t1GfbIz+AqpRRRRRRRRRRRRRRRQKKKkHY9KlQZXGefrSMAAPmAI96QrjBAOabt6dqXaMcHI+mKljUiRMgcnt25r2X4eeEPN1mz1edjFa2MaOyovMsmcgH8af4vLrqN3NIQXMylSTjABz0+vbsK5d2bypFD4kK8DH4UsE4s2juW+VYxkZ55xXK+JLj7RGhaHYwkLBh0+YZP8AIVh2il7yFFbaWcLn0ycU24ha2uZYHILRuUJHTIOKjooooooooooooooopaSpBzyOtL1OCMU9c7ME8e9O2n5cYz7U04Hb5val6AHoRwQcU+JTvGPlcEYHUmvorwZqM1x4PjRIyggdUlMmP3r7eRz26c/1rjPErsmoNG0ivxv2x4xHk5x9etYEzAW/mON391j6dyapvcMIV25dO64x3rK1mRZYDFGoaRQTIQemD/gK55HaN1dGKupyrKcEH1FWtVIbVLiRckSP5mS27O7nr+NU6KKKKKKKKKKKKKKKWipFHvQwz3+vNPi5K55571LkoeCeB/DSIgHKhsim7Tk8gkj0roPDunPdmSJYv3su1Imxk7ieMV7JZRx+HvDqaZDK5CEtdTElVLtyfqRjjmvN7y9+2y+cCxjVSiOfvsue/vVSdw1usRbaWIyAe3Wq8spOU5XPRhnAB9/wqoP39tLCgRHZWDykbiQT0HpwK5erd8sOy0kh3YeAb9wAw4JB6fQfnVSiiiiiiiiiiiiiiilHSiv/2Q==;" parent="1" vertex="1">
          <mxGeometry x="319" y="356" width="90" height="90" as="geometry" />
        </mxCell>
        <mxCell id="VPF1FaNwKksGI7bvQYjx-13" value="" style="shape=image;verticalLabelPosition=bottom;labelBackgroundColor=default;verticalAlign=top;aspect=fixed;imageAspect=0;image=data:image/jpeg,/9j/4AAQSkZJRgABAQAAAQABAAD/2wBDAAgGBgcGBQgHBwcJCQgKDBQNDAsLDBkSEw8UHRofHh0aHBwgJC4nICIsIxwcKDcpLDAxNDQ0Hyc5PTgyPC4zNDL/wAALCAEAAQABAREA/8QAHwAAAQUBAQEBAQEAAAAAAAAAAAECAwQFBgcICQoL/8QAtRAAAgEDAwIEAwUFBAQAAAF9AQIDAAQRBRIhMUEGE1FhByJxFDKBkaEII0KxwRVS0fAkM2JyggkKFhcYGRolJicoKSo0NTY3ODk6Q0RFRkdISUpTVFVWV1hZWmNkZWZnaGlqc3R1dnd4eXqDhIWGh4iJipKTlJWWl5iZmqKjpKWmp6ipqrKztLW2t7i5usLDxMXGx8jJytLT1NXW19jZ2uHi4+Tl5ufo6erx8vP09fb3+Pn6/9oACAEBAAA/APn+iiiiiiiiiiiiiiiiiiiiiiiiiiiiiiiiiiiiiiiiiiiiiiiiiiiiiiiiiiiiiiiiiiiiiiiiiiiiiiiiiiiiiiiiiiiiiiiiiiiiiiiiius0D4aeMPFGlrqej6LJPZs5RZWmjiDkddu9gSM8ZHGQR1BrD1nQ9U8Pai9hq9hPZXS5OyZMbgCRuU9GXIOGGQccGtDw34H8S+LvMOh6RPdxx5DTZWOMEYyu9yF3fMDtznBzjFdhdfAHxzb6dBcxW9jdTSbd1pDdASRZGTuLhU4PB2seTxkc1w+s+FPEHh7edX0W+so1lMPnTQMI2cZ4V8bW6EjBOQMjiseiiiiiiiiiiiiiiiiiiiiiiiivSPDHwR8Y+IJYZLqy/sixflp735XADbSBF9/djJAYKDjqMjP0XB8MfBFtYRWSeGNNMUbh1aSEPISH38yNl2GexJBHynjiuksbCz0yzjs7C0gtLWPOyGCMRouSScKOBkkn8ar6noWj635X9raVY3/k58v7XbpLszjONwOM4HT0FaFFFV7yws9QiEV7aQXMY3YSaMOBuUo3B9VZlPqGI6GuDvfgh4Dvbi9nOlSQPcoQBBcOiwuSxLxrnAPzD5SCo2rhRznj9S/Zp02W4VtL8SXdtBsAZLq2Wdi2TyGUoAMY4x2PPPHjHjPwNrXgXVEsdYijIlTfDcQEtFMOM7SQDkE4IIBHB6EE83RRRRRRRRRRRRRRRRRRVixsLzU7yOzsLSe7upM7IYIzI7YBJwo5OACfwr2j4f8AwG1k65baj4rigtbG1lEhsi6TPcFcFQwG5PLJznJJOCMDO4fR9FFFFFFFFFV76ws9Ts5LO/tILu1kxvhnjEiNggjKng4IB/CqcfhrQYdLm0uLRNNTT5n3y2i2qCJ245ZMYJ+VeSOw9K8j8dfs/addWZvPB/8AoV1DEf8AQJJGdLlgcjDuxKNjI5yp+X7vJr50ngmtbiW3uIpIZ4nKSRyKVZGBwQQeQQeMVHRRRRRRRRRRRRRRViwsbjU9RtrCzj8y6upUhhTcBudiAoyeBkkda+z/AAX4E0fwVo9ra2dvBLfRRGObUDbok025tzZYDO3OMKScAKMnGa6iiiiiiiiiiiiiiuP+JHgW38eeF5bHEEepRfvLG6lUnynyMjI52sBtPXscEqK+RNf8Oav4W1RtN1qxktLsIH2MQwZT0KspIYdRkE8gjqDWXRRRRRRRRRRRRUkEE11cRW9vFJNPK4SOONSzOxOAABySTxivaPhR8INe/wCEg0nxJrdnHaWFrcNJ9kumeO4LID5bhAOAJNpwxGQp4IIz9J0UUUUUUUUUUUUUUV84ftI6NeJ4h0nXNm6xltPse9QTskR3fDHGBkPxzk7W44rw+iiiiiiiiiiiivYP2c7D7R4+vbx7TzI7XT32zGPIikZ0Aw38LFfMA7kbu2a+n6KKKKKKKKKKKKKKKK5/xp4Ts/Gvhe60W8fyvNw8M4QO0MinKsAfxBxglSwyM5r4goooooooooooor6X/ZuvreTwbq1gsmbqHUPOkTaflR40CnPTkxv+XuK9oooooooooooooooooqOeCG6t5be4ijmglQpJHIoZXUjBBB4II4xXwx4lhsbbxVq8GlmM6fHezJamOTepiDkJhsncNuOcnNZdFFFFFFFFFFFfafw00Kx8PfD7R7WweOZJrdLqS4Rcee8gDF+VUkcgDcAQoUHpXWUUUUUUUUUUUUUUUUUV8SeP5NFl8eay3h6GOHSxcFYViIKEgAOyYJGwsGK44wRgDoOboooooooooorY8KaTb694t0nSbu5+z295dxwySDOcMwGFwrfMegyMZIzgZNfccEENrbxW9vFHDBEgSOONQqooGAABwABxipKKKKKKKKKKKKKKKjnnhtbeW4uJY4YIkLySSMFVFAySSeAAOc14v4u/aGsdJ1S707QNNj1MRIUW+a42xGXn7qhSXQHHIZd3OOMMfHPF3xO8U+NN0WpX3lWJx/oNoDHD/D1GSX5UN8xbBzjFcfRRRRRRRRRRRXSfD6Fp/iN4bRDGCNTt3+eRUGFkDHliBnA4HUnAGSQK+26KKKKKKKKKKKKKjnnhtbeW4uJY4YIkLySSMFVFAySSeAAOc15X4n+P3hbRZZrbS4p9Zuo+A0JEcBYNhh5h5OACQVVlORg85Hhnj74ma14/uI1vBHa6fA7NBZQk7QSThnJ++4U4zwOuAMnPF0UUUUUUUUUUUUV1Hw51n+wPiLoWol4I41u1ilknOESOT927E5GMK7HJ4GOeK+04J4bq3iuLeWOaCVA8ckbBldSMggjggjnNSUUUUUUUUUUUVl+I9fsfC3h+81rUmkFpaoGfy13MxJCqoHqWIHOBzyQOa+QPHPxB1rx1qkk99PJDYBwbfT0kJihAyAcdGfDHLkZOTjAwBydFFFFFFFFFFFFFFFFdh4L+JPiDwVqNrJbXk9zpsWVfTZpmMLIxywUchGzyGA69cgkH6v8ABvi7TvGvh6LVtOb0juIsN+5m2KzR5KjdjcBuAwa6CiiiiiiiiiiuD+J/w2h+IWlwBbyS11CxSQ2ZOPKZn25EgwTj5AMjpnOG6V8gTwTWtxLb3EUkM8TlJI5FKsjA4IIPIIPGKjooooooooooooooooor6z+A2mw2Pwrs7iJpC9/cTXEoYjAYOYsLx02xqec8k/QemUUUUUVz/jTxZZ+CvC91rV4nm+VhIYA4RppGOFUE/iTjJChjg4xXikP7S2pK5M/hu0dPtDMAlyynydp2pkg/OGwS/QgEbRnI7vwB8a9L8bawmjT6bPpupTbzAm/zo5Aq7iN4AIbAY4K4wvXJAr1CivI/Gnx60DRLdoPDrR6zqG94yRuWCEgEBi2P3g3YwEOCAfmHGfmCeea6uJbi4lkmnlcvJJIxZnYnJJJ5JJ5zUdFFFFFFFFFFFFFFFFFfSf7PXjNdQ0SXwlPHGk+nI09sy7syxM5L7uMAqzjvyHHHykn2yiiiiivnT9pbUoZdZ0DS1WTz7e3luHYgbSsjKqgc5zmJs8dx17eF0V1mifE3xp4et/s+neILtYNiIsc22dY1UYUIJAwQAHGFx0HoKj1n4jeMdf3jUfEV88bxGF4YZPJjdDnIZI9qtnJByORx0rl6KKKKKKKKKKKKKKKKKKK0NC1P+xPEOmat5PnfYbuK58rdt37HDbc4OM4xnBr7f0PWbPxDodlq9g++1u4llTJBK56q2CQGByCM8EEVoUUUVHPPDa28txcSxwwRIXkkkYKqKBkkk8AAc5r40+J3i7/hNPHN7qUTbrGL/RrLjH7lCcN90H5iWfBGRux2rj6KKKKKKKKKKKKKKKKKKKKKKKK7j4d/E3VPh9eSiKP7bpk+TNYvJsBfGA6tg7W4APByOCOFI+n/AAd8QPD/AI4s/N0m623C7jJZTlVnjAIG4oCcryvzAkc4znIHUUUV5P8AHfxp/wAI/wCEv7GsbuBdS1TMUsJXc4tSrB2HZcnCgnrlscjI+WKKKKKKKKKKKKKKKKKKKKKKKKKKKkgnmtbiK4t5ZIZ4nDxyRsVZGByCCOQQec16Ronx38b6Pb+RNc2mpoERIzfwlmQKMfeQqWJ4yWLE4+uek0z9pTWIvN/tbw/Y3WceX9kme329c53b89umMYPXPEmpftLalLbqul+G7S2n3gs91ctOpXB4CqEIOcc57HjnjxfVdVvtc1S41PU7mS5vLh98sr9WP8gAMAAcAAAYAqnRRRRRRRRRRRRRRRRRRRRRRRRRRRRRRRRRRRRRRRRRRRRRRRRRRRRRRRRRRRRRRRRRRRRRRRRRRRRRRRRRRRRRRRRRRRRRRRRRRRRRRRRRRRRRRRRRRRRRRRRRRRRRRRRRRRRRRRRRRRRRRRRRRRRRRRRRRRRRRRRRRRRRRRRRRRRRRRRRRRRRRRRRRRRRRRRRRRRRRRRRRRRRRRRRRRRRRRRRRRRRRRRRRRRRRRRRRRRRRRRRRRRRRRRRRRRRRRRRRRRRRRRRRRRRRRRRRRRRRRRRRRRRRRRRRRRRRRRRRRRRRRRRRRRRRRRRRRRRRRRRRRRRRRRRRRRRRRRRRRRRRRRRRRRRRRRRRRRRRRRRRRRRRRRRRRRRRRRRRRRRRRRRRRRRRRRRRRRRRRRRRRX/2Q==;" parent="1" vertex="1">
          <mxGeometry x="1639" y="356" width="90" height="90" as="geometry" />
        </mxCell>
        <mxCell id="VPF1FaNwKksGI7bvQYjx-14" value="" style="rounded=1;whiteSpace=wrap;html=1;fontStyle=1;align=center;fillColor=#4D4D4D;strokeColor=none;fontColor=#333333;strokeWidth=2;fontFamily=Helvetica;fontSize=13;gradientColor=default;rotation=90;" parent="1" vertex="1">
          <mxGeometry x="351.5" y="418" width="25" height="90" as="geometry" />
        </mxCell>
        <mxCell id="VPF1FaNwKksGI7bvQYjx-15" value="&lt;span&gt;&lt;font style=&quot;font-size: 12px;&quot; color=&quot;#ffffff&quot;&gt;input image&lt;/font&gt;&lt;/span&gt;" style="text;html=1;align=center;verticalAlign=middle;whiteSpace=wrap;rounded=0;rotation=0;fontStyle=1;fontFamily=Helvetica;fontSize=13;" parent="1" vertex="1">
          <mxGeometry x="322.25" y="454.75" width="83.5" height="16.5" as="geometry" />
        </mxCell>
        <mxCell id="VPF1FaNwKksGI7bvQYjx-17" value="" style="rounded=1;whiteSpace=wrap;html=1;fontFamily=Helvetica;fontSize=13;strokeColor=#82b366;fillStyle=auto;fillColor=#F5F5F5;" parent="1" vertex="1">
          <mxGeometry x="1540" y="726.98" width="189" height="42.52" as="geometry" />
        </mxCell>
        <mxCell id="VPF1FaNwKksGI7bvQYjx-19" value="&lt;b style=&quot;&quot;&gt;&lt;font color=&quot;#82b366&quot;&gt;max pool 2x2&lt;/font&gt;&lt;/b&gt;" style="text;html=1;align=center;verticalAlign=middle;whiteSpace=wrap;rounded=0;fontFamily=Helvetica;fontSize=13;" parent="1" vertex="1">
          <mxGeometry x="1612.5" y="738.24" width="87" height="18" as="geometry" />
        </mxCell>
        <mxCell id="VPF1FaNwKksGI7bvQYjx-20" style="edgeStyle=orthogonalEdgeStyle;rounded=0;orthogonalLoop=1;jettySize=auto;html=1;exitX=0.5;exitY=0;exitDx=0;exitDy=0;endArrow=blockThin;endFill=1;strokeWidth=4;fillColor=#d5e8d4;strokeColor=#82b366;fontFamily=Helvetica;fontSize=13;" parent="1" edge="1">
          <mxGeometry relative="1" as="geometry">
            <mxPoint x="1586.3" y="764.11" as="sourcePoint" />
            <mxPoint x="1586.5" y="732.37" as="targetPoint" />
          </mxGeometry>
        </mxCell>
        <mxCell id="VPF1FaNwKksGI7bvQYjx-21" style="edgeStyle=orthogonalEdgeStyle;rounded=0;orthogonalLoop=1;jettySize=auto;html=1;entryX=0;entryY=0.5;entryDx=0;entryDy=0;strokeWidth=4;endArrow=blockThin;endFill=1;fontStyle=1;align=center;fillColor=#dae8fc;strokeColor=#6c8ebf;fontFamily=Helvetica;fontSize=13;" parent="1" edge="1">
          <mxGeometry relative="1" as="geometry">
            <mxPoint x="1554.5" y="637.89" as="sourcePoint" />
            <mxPoint x="1604.5" y="637.89" as="targetPoint" />
          </mxGeometry>
        </mxCell>
        <mxCell id="VPF1FaNwKksGI7bvQYjx-25" value="&lt;b style=&quot;&quot;&gt;&lt;font color=&quot;#6c8ebf&quot;&gt;conv 3x3, ReLU&lt;/font&gt;&lt;/b&gt;" style="text;html=1;align=center;verticalAlign=middle;whiteSpace=wrap;rounded=0;fontFamily=Helvetica;fontSize=13;" parent="1" vertex="1">
          <mxGeometry x="1609.5" y="630" width="100" height="14" as="geometry" />
        </mxCell>
        <mxCell id="VPF1FaNwKksGI7bvQYjx-27" value="" style="rounded=1;whiteSpace=wrap;html=1;fontFamily=Helvetica;fontSize=13;strokeColor=#D99857;fillStyle=auto;fillColor=#F5F5F5;" parent="1" vertex="1">
          <mxGeometry x="1540" y="775" width="189" height="20" as="geometry" />
        </mxCell>
        <mxCell id="VPF1FaNwKksGI7bvQYjx-28" style="edgeStyle=orthogonalEdgeStyle;rounded=0;orthogonalLoop=1;jettySize=auto;html=1;entryX=0;entryY=0.5;entryDx=0;entryDy=0;strokeWidth=4;endArrow=blockThin;endFill=1;fontStyle=1;align=center;fillColor=#dae8fc;strokeColor=#D99857;fontFamily=Helvetica;fontSize=13;" parent="1" edge="1">
          <mxGeometry relative="1" as="geometry">
            <mxPoint x="1554.5" y="784.89" as="sourcePoint" />
            <mxPoint x="1604.5" y="784.89" as="targetPoint" />
          </mxGeometry>
        </mxCell>
        <mxCell id="VPF1FaNwKksGI7bvQYjx-29" value="&lt;b style=&quot;&quot;&gt;&lt;font color=&quot;#d99857&quot;&gt;conv 1x1&lt;/font&gt;&lt;/b&gt;" style="text;html=1;align=center;verticalAlign=middle;whiteSpace=wrap;rounded=0;fontFamily=Helvetica;fontSize=13;" parent="1" vertex="1">
          <mxGeometry x="1609.5" y="777" width="100" height="14" as="geometry" />
        </mxCell>
        <mxCell id="VPF1FaNwKksGI7bvQYjx-34" value="" style="rounded=1;whiteSpace=wrap;html=1;fontFamily=Helvetica;fontSize=13;strokeColor=#A680B8;fillStyle=auto;fillColor=#F5F5F5;" parent="1" vertex="1">
          <mxGeometry x="1540" y="601.5" width="189" height="20" as="geometry" />
        </mxCell>
        <mxCell id="VPF1FaNwKksGI7bvQYjx-36" value="&lt;b style=&quot;&quot;&gt;&lt;font color=&quot;#a680b8&quot;&gt;padding = same&lt;/font&gt;&lt;/b&gt;" style="text;html=1;align=center;verticalAlign=middle;whiteSpace=wrap;rounded=0;fontFamily=Helvetica;fontSize=13;" parent="1" vertex="1">
          <mxGeometry x="1549.5" y="603.5" width="170" height="14" as="geometry" />
        </mxCell>
        <mxCell id="VPF1FaNwKksGI7bvQYjx-38" value="" style="rounded=0;whiteSpace=wrap;html=1;fontStyle=1;align=center;fillColor=#ffe6cc;strokeColor=#d79b00;strokeWidth=2;fontFamily=Helvetica;fontSize=13;" parent="1" vertex="1">
          <mxGeometry x="1598" y="356" width="13" height="90" as="geometry" />
        </mxCell>
        <mxCell id="VPF1FaNwKksGI7bvQYjx-46" value="" style="rounded=1;whiteSpace=wrap;html=1;fontStyle=1;align=center;fillColor=#4D4D4D;strokeColor=none;fontColor=#333333;strokeWidth=2;fontFamily=Helvetica;fontSize=13;gradientColor=default;rotation=90;" parent="1" vertex="1">
          <mxGeometry x="1659.37" y="430" width="46.75" height="90" as="geometry" />
        </mxCell>
        <mxCell id="VPF1FaNwKksGI7bvQYjx-47" value="&lt;span&gt;&lt;font face=&quot;Helvetica&quot; style=&quot;font-size: 12px; line-height: 0%;&quot; color=&quot;#ffffff&quot;&gt;output segmentation&amp;nbsp; map&lt;/font&gt;&lt;/span&gt;" style="text;html=1;align=center;verticalAlign=middle;whiteSpace=wrap;rounded=0;rotation=0;fontStyle=1;fontFamily=Helvetica;fontSize=13;" parent="1" vertex="1">
          <mxGeometry x="1641" y="457" width="83.5" height="34" as="geometry" />
        </mxCell>
        <mxCell id="VPF1FaNwKksGI7bvQYjx-54" value="P4&lt;div&gt;8x8x&lt;font color=&quot;#cc0066&quot;&gt;256&lt;/font&gt;&lt;/div&gt;" style="text;html=1;align=left;verticalAlign=middle;whiteSpace=wrap;rounded=0;rotation=0;fontStyle=1;fontFamily=Helvetica;fontSize=13;" parent="1" vertex="1">
          <mxGeometry x="784" y="767" width="57.5" height="26" as="geometry" />
        </mxCell>
        <mxCell id="VPF1FaNwKksGI7bvQYjx-57" value="P3&lt;div&gt;16x16x&lt;font color=&quot;#cc0066&quot;&gt;128&lt;/font&gt;&lt;/div&gt;" style="text;html=1;align=left;verticalAlign=middle;whiteSpace=wrap;rounded=0;rotation=0;fontStyle=1;fontFamily=Helvetica;fontSize=13;" parent="1" vertex="1">
          <mxGeometry x="647" y="712" width="70" height="29" as="geometry" />
        </mxCell>
        <mxCell id="VPF1FaNwKksGI7bvQYjx-58" value="P2&lt;div&gt;32x32x&lt;font color=&quot;#cc0066&quot;&gt;64&lt;/font&gt;&lt;/div&gt;" style="text;html=1;align=left;verticalAlign=middle;whiteSpace=wrap;rounded=0;rotation=0;fontStyle=1;fontFamily=Helvetica;fontSize=13;" parent="1" vertex="1">
          <mxGeometry x="543.5" y="637" width="66.5" height="27" as="geometry" />
        </mxCell>
        <mxCell id="VPF1FaNwKksGI7bvQYjx-59" value="P1&lt;div&gt;64x64x&lt;font color=&quot;#cc0066&quot;&gt;32&lt;/font&gt;&lt;/div&gt;" style="text;html=1;align=left;verticalAlign=middle;whiteSpace=wrap;rounded=0;rotation=0;fontStyle=1;fontFamily=Helvetica;fontSize=13;" parent="1" vertex="1">
          <mxGeometry x="451" y="530" width="62" height="29" as="geometry" />
        </mxCell>
        <mxCell id="VPF1FaNwKksGI7bvQYjx-60" value="C1&lt;div&gt;128x128&lt;span style=&quot;background-color: initial;&quot;&gt;x&lt;/span&gt;&lt;font style=&quot;background-color: initial;&quot; color=&quot;#cc0066&quot;&gt;32&lt;/font&gt;&lt;/div&gt;" style="text;html=1;align=left;verticalAlign=middle;whiteSpace=wrap;rounded=0;rotation=0;fontStyle=1;fontFamily=Helvetica;fontSize=13;" parent="1" vertex="1">
          <mxGeometry x="542.5" y="370" width="77.5" height="24" as="geometry" />
        </mxCell>
        <mxCell id="VPF1FaNwKksGI7bvQYjx-61" value="C2&lt;div&gt;64x&lt;span style=&quot;background-color: initial;&quot;&gt;64&lt;/span&gt;&lt;span style=&quot;background-color: initial;&quot;&gt;x&lt;font color=&quot;#cc0066&quot;&gt;64&lt;/font&gt;&lt;/span&gt;&lt;/div&gt;" style="text;html=1;align=left;verticalAlign=middle;whiteSpace=wrap;rounded=0;rotation=0;fontStyle=1;fontFamily=Helvetica;fontSize=13;" parent="1" vertex="1">
          <mxGeometry x="639.5" y="482" width="64.75" height="31" as="geometry" />
        </mxCell>
        <mxCell id="VPF1FaNwKksGI7bvQYjx-62" value="C3&lt;div&gt;32x32&lt;span style=&quot;background-color: initial;&quot;&gt;x&lt;font color=&quot;#cc0066&quot;&gt;128&lt;/font&gt;&lt;/span&gt;&lt;/div&gt;" style="text;html=1;align=left;verticalAlign=middle;whiteSpace=wrap;rounded=0;rotation=0;fontStyle=1;fontFamily=Helvetica;fontSize=13;" parent="1" vertex="1">
          <mxGeometry x="756" y="593" width="64.75" height="31" as="geometry" />
        </mxCell>
        <mxCell id="VPF1FaNwKksGI7bvQYjx-63" value="C4&lt;div&gt;16x16&lt;span style=&quot;background-color: initial;&quot;&gt;x&lt;font color=&quot;#cc0066&quot;&gt;256&lt;/font&gt;&lt;/span&gt;&lt;/div&gt;" style="text;html=1;align=left;verticalAlign=middle;whiteSpace=wrap;rounded=0;rotation=0;fontStyle=1;fontFamily=Helvetica;fontSize=13;" parent="1" vertex="1">
          <mxGeometry x="884.25" y="685.97" width="64.75" height="31" as="geometry" />
        </mxCell>
        <mxCell id="VPF1FaNwKksGI7bvQYjx-64" value="C5&lt;div&gt;8x8&lt;span style=&quot;background-color: initial;&quot;&gt;x&lt;font color=&quot;#cc0066&quot;&gt;512&lt;/font&gt;&lt;/span&gt;&lt;/div&gt;" style="text;html=1;align=left;verticalAlign=middle;whiteSpace=wrap;rounded=0;rotation=0;fontStyle=1;fontFamily=Helvetica;fontSize=13;" parent="1" vertex="1">
          <mxGeometry x="1099" y="764" width="64.75" height="31" as="geometry" />
        </mxCell>
        <mxCell id="VPF1FaNwKksGI7bvQYjx-65" value="&lt;span&gt;&lt;font color=&quot;#cc0066&quot;&gt;256&lt;/font&gt;&lt;/span&gt;" style="text;html=1;align=center;verticalAlign=middle;whiteSpace=wrap;rounded=0;rotation=0;fontStyle=1;fontFamily=Helvetica;fontSize=13;" parent="1" vertex="1">
          <mxGeometry x="1185" y="739" width="26" height="23" as="geometry" />
        </mxCell>
        <mxCell id="VPF1FaNwKksGI7bvQYjx-66" value="&lt;span&gt;&lt;font color=&quot;#cc0066&quot;&gt;256&lt;/font&gt;&lt;/span&gt;" style="text;html=1;align=center;verticalAlign=middle;whiteSpace=wrap;rounded=0;rotation=0;fontStyle=1;fontFamily=Helvetica;fontSize=13;" parent="1" vertex="1">
          <mxGeometry x="1123.5" y="739" width="26" height="23" as="geometry" />
        </mxCell>
        <mxCell id="VPF1FaNwKksGI7bvQYjx-67" value="C6&lt;div&gt;16x16&lt;span style=&quot;background-color: initial;&quot;&gt;x&lt;font color=&quot;#cc0066&quot;&gt;256&lt;/font&gt;&lt;/span&gt;&lt;/div&gt;" style="text;html=1;align=left;verticalAlign=middle;whiteSpace=wrap;rounded=0;rotation=0;fontStyle=1;fontFamily=Helvetica;fontSize=13;" parent="1" vertex="1">
          <mxGeometry x="1217" y="711" width="73" height="31" as="geometry" />
        </mxCell>
        <mxCell id="VPF1FaNwKksGI7bvQYjx-68" value="C7&lt;div&gt;32x32&lt;span style=&quot;background-color: initial;&quot;&gt;x&lt;font color=&quot;#cc0066&quot;&gt;128&lt;/font&gt;&lt;/span&gt;&lt;/div&gt;" style="text;html=1;align=left;verticalAlign=middle;whiteSpace=wrap;rounded=0;rotation=0;fontStyle=1;fontFamily=Helvetica;fontSize=13;" parent="1" vertex="1">
          <mxGeometry x="1326.5" y="635" width="73.5" height="31" as="geometry" />
        </mxCell>
        <mxCell id="VPF1FaNwKksGI7bvQYjx-69" value="&lt;span&gt;&lt;font color=&quot;#cc0066&quot;&gt;128&lt;/font&gt;&lt;/span&gt;" style="text;html=1;align=center;verticalAlign=middle;whiteSpace=wrap;rounded=0;rotation=0;fontStyle=1;fontFamily=Helvetica;fontSize=13;" parent="1" vertex="1">
          <mxGeometry x="1243" y="662.97" width="26" height="23" as="geometry" />
        </mxCell>
        <mxCell id="VPF1FaNwKksGI7bvQYjx-70" value="&lt;span&gt;&lt;font color=&quot;#cc0066&quot;&gt;128&lt;/font&gt;&lt;/span&gt;" style="text;html=1;align=center;verticalAlign=middle;whiteSpace=wrap;rounded=0;rotation=0;fontStyle=1;fontFamily=Helvetica;fontSize=13;" parent="1" vertex="1">
          <mxGeometry x="1297.5" y="662.97" width="26" height="23" as="geometry" />
        </mxCell>
        <mxCell id="VPF1FaNwKksGI7bvQYjx-72" value="C8&lt;div&gt;64x64&lt;span style=&quot;background-color: initial;&quot;&gt;x&lt;font color=&quot;#cc0066&quot;&gt;64&lt;/font&gt;&lt;/span&gt;&lt;/div&gt;" style="text;html=1;align=left;verticalAlign=middle;whiteSpace=wrap;rounded=0;rotation=0;fontStyle=1;fontFamily=Helvetica;fontSize=13;" parent="1" vertex="1">
          <mxGeometry x="1425.25" y="528" width="64.75" height="31" as="geometry" />
        </mxCell>
        <mxCell id="VPF1FaNwKksGI7bvQYjx-73" value="C9&lt;div&gt;128x128&lt;span style=&quot;background-color: initial;&quot;&gt;x&lt;font color=&quot;#cc0066&quot;&gt;32&lt;/font&gt;&lt;/span&gt;&lt;/div&gt;" style="text;html=1;align=left;verticalAlign=middle;whiteSpace=wrap;rounded=0;rotation=0;fontStyle=1;fontFamily=Helvetica;fontSize=13;" parent="1" vertex="1">
          <mxGeometry x="1508.5" y="417" width="81.5" height="31" as="geometry" />
        </mxCell>
        <mxCell id="VPF1FaNwKksGI7bvQYjx-76" value="&lt;font color=&quot;#cc0066&quot;&gt;&lt;span&gt;32&lt;/span&gt;&lt;/font&gt;" style="text;html=1;align=center;verticalAlign=middle;whiteSpace=wrap;rounded=0;rotation=0;fontStyle=1;fontFamily=Helvetica;fontSize=13;" parent="1" vertex="1">
          <mxGeometry x="1447" y="445" width="20" height="23" as="geometry" />
        </mxCell>
        <mxCell id="VPF1FaNwKksGI7bvQYjx-77" value="&lt;span&gt;&lt;font color=&quot;#cc0066&quot;&gt;32&lt;/font&gt;&lt;/span&gt;" style="text;html=1;align=center;verticalAlign=middle;whiteSpace=wrap;rounded=0;rotation=0;fontStyle=1;fontFamily=Helvetica;fontSize=13;" parent="1" vertex="1">
          <mxGeometry x="1487.5" y="445" width="20" height="23" as="geometry" />
        </mxCell>
        <mxCell id="VPF1FaNwKksGI7bvQYjx-79" value="&lt;span&gt;&lt;font color=&quot;#cc0066&quot;&gt;64&lt;/font&gt;&lt;/span&gt;" style="text;html=1;align=center;verticalAlign=middle;whiteSpace=wrap;rounded=0;rotation=0;fontStyle=1;fontFamily=Helvetica;fontSize=13;" parent="1" vertex="1">
          <mxGeometry x="1349.5" y="557" width="26" height="23" as="geometry" />
        </mxCell>
        <mxCell id="VPF1FaNwKksGI7bvQYjx-80" value="&lt;span&gt;&lt;font color=&quot;#cc0066&quot;&gt;64&lt;/font&gt;&lt;/span&gt;" style="text;html=1;align=center;verticalAlign=middle;whiteSpace=wrap;rounded=0;rotation=0;fontStyle=1;fontFamily=Helvetica;fontSize=13;" parent="1" vertex="1">
          <mxGeometry x="1398" y="557" width="26" height="23" as="geometry" />
        </mxCell>
        <mxCell id="VPF1FaNwKksGI7bvQYjx-81" value="&lt;font color=&quot;#d99857&quot;&gt;128x128x1&lt;/font&gt;" style="text;html=1;align=center;verticalAlign=middle;whiteSpace=wrap;rounded=0;rotation=-90;fontStyle=1;fontFamily=Helvetica;fontSize=13;" parent="1" vertex="1">
          <mxGeometry x="1585.12" y="406.88" width="74.25" height="15.75" as="geometry" />
        </mxCell>
        <mxCell id="VPF1FaNwKksGI7bvQYjx-82" value="&lt;div&gt;16x16&lt;span style=&quot;background-color: initial;&quot;&gt;x&lt;font color=&quot;#cc0066&quot;&gt;512&lt;/font&gt;&lt;/span&gt;&lt;/div&gt;" style="text;html=1;align=left;verticalAlign=middle;whiteSpace=wrap;rounded=0;rotation=0;fontStyle=1;fontFamily=Helvetica;fontSize=13;" parent="1" vertex="1">
          <mxGeometry x="1039.25" y="680.25" width="64.75" height="16.5" as="geometry" />
        </mxCell>
        <mxCell id="VPF1FaNwKksGI7bvQYjx-85" value="&lt;div&gt;32x32&lt;span style=&quot;background-color: initial;&quot;&gt;x&lt;font color=&quot;#cc0066&quot;&gt;256&lt;/font&gt;&lt;/span&gt;&lt;/div&gt;" style="text;html=1;align=left;verticalAlign=middle;whiteSpace=wrap;rounded=0;rotation=0;fontStyle=1;fontFamily=Helvetica;fontSize=13;" parent="1" vertex="1">
          <mxGeometry x="1160" y="574.25" width="64.75" height="16.5" as="geometry" />
        </mxCell>
        <mxCell id="VPF1FaNwKksGI7bvQYjx-86" value="&lt;div&gt;64x64&lt;span style=&quot;background-color: initial;&quot;&gt;x&lt;font color=&quot;#cc0066&quot;&gt;128&lt;/font&gt;&lt;/span&gt;&lt;/div&gt;" style="text;html=1;align=left;verticalAlign=middle;whiteSpace=wrap;rounded=0;rotation=0;fontStyle=1;fontFamily=Helvetica;fontSize=13;" parent="1" vertex="1">
          <mxGeometry x="1273" y="458.25" width="64.75" height="16.5" as="geometry" />
        </mxCell>
        <mxCell id="VPF1FaNwKksGI7bvQYjx-88" value="&lt;div&gt;128x128&lt;span style=&quot;background-color: initial;&quot;&gt;x&lt;font color=&quot;#cc0066&quot;&gt;64&lt;/font&gt;&lt;/span&gt;&lt;/div&gt;" style="text;html=1;align=left;verticalAlign=middle;whiteSpace=wrap;rounded=0;rotation=0;fontStyle=1;fontFamily=Helvetica;fontSize=13;" parent="1" vertex="1">
          <mxGeometry x="1372.5" y="336.25" width="75" height="16.5" as="geometry" />
        </mxCell>
      </root>
    </mxGraphModel>
  </diagram>
</mxfile>
